<?xml version="1.0" encoding="utf-8"?>
<!-- Generator: Adobe Illustrator 24.0.1, SVG Export Plug-In . SVG Version: 6.00 Build 0)  -->
<svg version="1.1" id="Layer_1" xmlns="http://www.w3.org/2000/svg" xmlns:xlink="http://www.w3.org/1999/xlink" x="0px" y="0px"
	 width="22.5px" height="14.1055px" viewBox="0 0 22.5 14.1055" style="enable-background:new 0 0 22.5 14.1055;"
	 xml:space="preserve">
<g>
	<path d="M11.5898,9.8242c0,2.8125-2.3633,4.0195-4.8789,4.0195H0V0h6.5273c2.3711,0,4.4258,0.6719,4.4258,3.4297
		c0,1.3984-0.6484,2.2969-1.8906,2.8906C10.7656,6.8008,11.5898,8.0859,11.5898,9.8242z M3.043,5.5938h3.0859
		c1.0859,0,1.8555-0.4727,1.8555-1.6484c0-1.2734-0.9883-1.582-2.0859-1.582H3.043V5.5938z M8.5469,9.6562
		c0-1.418-0.8477-1.9766-2.1875-1.9766H3.043v3.8125h3.2539C7.5352,11.4922,8.5469,11.0547,8.5469,9.6562z M22.4766,9.4922h-7.2305
		c0,1.6055,0.8477,2.5508,2.4609,2.5508c0.8359,0,1.9141-0.4531,2.1758-1.3086h2.4297c-0.7461,2.293-2.2969,3.3711-4.6914,3.3711
		c-3.1641,0-5.1289-2.1406-5.1289-5.2617c0-3.0078,2.0742-5.3047,5.1289-5.3047c3.1445,0,4.8789,2.4727,4.8789,5.4375
		C22.5,9.1523,22.4883,9.3281,22.4766,9.4922z M14.6875,2.0898V0.7266h5.6133v1.3633H14.6875z M19.7305,7.7578
		c-0.1172-1.3281-0.8125-2.1406-2.1953-2.1406c-1.3203,0-2.1953,0.8242-2.2852,2.1406H19.7305z"/>
</g>
<g>
</g>
<g>
</g>
<g>
</g>
<g>
</g>
<g>
</g>
<g>
</g>
<g>
</g>
<g>
</g>
<g>
</g>
<g>
</g>
<g>
</g>
<g>
</g>
<g>
</g>
<g>
</g>
<g>
</g>
</svg>
