<?xml version="1.0" encoding="utf-8"?>
<!-- Generator: Adobe Illustrator 24.0.1, SVG Export Plug-In . SVG Version: 6.00 Build 0)  -->
<svg version="1.1" id="Layer_1" xmlns="http://www.w3.org/2000/svg" xmlns:xlink="http://www.w3.org/1999/xlink" x="0px" y="0px"
	 width="18.375px" height="18.375px" viewBox="0 0 18.375 18.375" style="enable-background:new 0 0 18.375 18.375;"
	 xml:space="preserve">
<path d="M18.375,1.9688v14.4375c0,1.0869-0.8818,1.9688-1.9688,1.9688h-5.6289v-6.2471h2.3691l0.4512-2.9404h-2.8203V7.2783
	c0-0.8047,0.3936-1.5889,1.6572-1.5889h1.2822v-2.502c0,0-1.1641-0.1982-2.2764-0.1982c-2.3252,0-3.8428,1.4082-3.8428,3.957v2.2412
	h-2.584v2.9404h2.584v6.2471H1.9688C0.8818,18.375,0,17.4932,0,16.4062V1.9688C0,0.8818,0.8818,0,1.9688,0h14.4375
	C17.4932,0,18.375,0.8818,18.375,1.9688z"/>
<g>
</g>
<g>
</g>
<g>
</g>
<g>
</g>
<g>
</g>
<g>
</g>
<g>
</g>
<g>
</g>
<g>
</g>
<g>
</g>
<g>
</g>
<g>
</g>
<g>
</g>
<g>
</g>
<g>
</g>
</svg>
