<?xml version="1.0" encoding="utf-8"?>
<!-- Generator: Adobe Illustrator 24.0.1, SVG Export Plug-In . SVG Version: 6.00 Build 0)  -->
<svg version="1.1" id="Layer_1" xmlns="http://www.w3.org/2000/svg" xmlns:xlink="http://www.w3.org/1999/xlink" x="0px" y="0px"
	 width="18.3848px" height="18.3809px" viewBox="0 0 18.3848 18.3809" style="enable-background:new 0 0 18.3848 18.3809;"
	 xml:space="preserve">
<path d="M18.3203,12.9805c-0.0732,1.4717-0.4102,2.7764-1.4844,3.8506c-1.0752,1.0791-2.3789,1.415-3.8516,1.4854
	c-1.5176,0.0859-6.0664,0.0859-7.584,0c-1.4727-0.0742-2.7725-0.4102-3.8516-1.4854c-1.0781-1.0742-1.415-2.3789-1.4844-3.8506
	c-0.0859-1.5176-0.0859-6.0664,0-7.584c0.0742-1.4727,0.4062-2.7773,1.4844-3.8516c1.0791-1.0742,2.3838-1.4111,3.8516-1.4805
	c1.5176-0.0859,6.0664-0.0859,7.584,0c1.4727,0.0732,2.7764,0.4102,3.8516,1.4844c1.0781,1.0752,1.415,2.3789,1.4844,3.8516
	C18.4062,6.918,18.4062,11.4629,18.3203,12.9805z M16.7295,9.1904c0-1.3369,0.1104-4.208-0.3691-5.418
	c-0.3242-0.8086-0.9434-1.4277-1.748-1.748c-1.2051-0.4756-4.0811-0.3691-5.418-0.3691s-4.208-0.1104-5.418,0.3691
	c-0.8076,0.3242-1.4277,0.9434-1.7471,1.748c-0.4756,1.2051-0.3691,4.0811-0.3691,5.418s-0.1113,4.208,0.3691,5.418
	c0.3242,0.8076,0.9434,1.4277,1.7471,1.7471c1.2061,0.4756,4.0811,0.3691,5.418,0.3691s4.208,0.1113,5.418-0.3691
	c0.8086-0.3242,1.4277-0.9434,1.748-1.7471C16.8398,13.4023,16.7295,10.5273,16.7295,9.1904z M13.9072,9.1904
	c0,2.6084-2.1045,4.7129-4.7129,4.7129s-4.7129-2.1045-4.7129-4.7129s2.1045-4.7129,4.7129-4.7129S13.9072,6.582,13.9072,9.1904z
	 M12.2588,9.1904c0-1.6904-1.374-3.0645-3.0645-3.0645c-1.6895,0-3.0635,1.374-3.0635,3.0645c0,1.6895,1.3779,3.0635,3.0635,3.0635
	S12.2588,10.8799,12.2588,9.1904z M14.0996,5.3838c-0.6104,0-1.0986-0.4922-1.0986-1.0986c0-0.6074,0.4922-1.0996,1.0986-1.0996
	c0.6074,0,1.0996,0.4922,1.0996,1.0996C15.1992,4.8955,14.707,5.3838,14.0996,5.3838z"/>
<g>
</g>
<g>
</g>
<g>
</g>
<g>
</g>
<g>
</g>
<g>
</g>
<g>
</g>
<g>
</g>
<g>
</g>
<g>
</g>
<g>
</g>
<g>
</g>
<g>
</g>
<g>
</g>
<g>
</g>
</svg>
