<?xml version="1.0" encoding="utf-8"?>
<!-- Generator: Adobe Illustrator 24.0.1, SVG Export Plug-In . SVG Version: 6.00 Build 0)  -->
<svg version="1.1" id="Layer_1" xmlns="http://www.w3.org/2000/svg" xmlns:xlink="http://www.w3.org/1999/xlink" x="0px" y="0px"
	 width="281.9134px" height="39.4819px" viewBox="0 0 281.9134 39.4819" style="enable-background:new 0 0 281.9134 39.4819;"
	 xml:space="preserve">
<g>
	<g>
		<g>
			<path d="M273.2406,34.8496c0-2.4238,1.9121-4.3359,4.3369-4.3359c2.3965,0,4.3359,1.9121,4.3359,4.3359
				c0,2.397-1.9395,4.3359-4.3359,4.3359C275.1527,39.1855,273.2406,37.2466,273.2406,34.8496z"/>
		</g>
		<g>
			<path d="M0,2.3159c0-0.9155,0.7539-1.6157,1.6426-1.6157c0.8892,0,1.6431,0.7002,1.6431,1.6157S2.5317,3.959,1.6426,3.959
				C0.7539,3.959,0,3.2314,0,2.3159z M0.5923,10.8535h2.1011v28.0088H0.5923V10.8535z"/>
			<path d="M9.6812,10.8535h1.9658v6.0864h0.0542c1.2656-3.8516,4.9282-6.5176,9.6953-6.5176
				c6.1675,0,10.2339,3.9858,10.2339,10.2881v18.1519h-2.1006V20.9795c0-5.4131-3.4204-8.6719-8.6182-8.6719
				c-5.4131,0-9.1299,4.0127-9.1299,9.8301v16.7246H9.6812V10.8535z"/>
			<path d="M48.3403,38.8623h-2.5049L35.2783,10.8535h2.2354l9.5337,25.9082h0.0811l9.5337-25.9082h2.2085L48.3403,38.8623z"/>
			<path d="M61.0908,24.8579c0-8.8877,5.0361-14.4355,12.4692-14.4355s12.4966,5.5479,12.4966,14.4355
				c0,8.8872-5.0635,14.4351-12.4966,14.4351S61.0908,33.7451,61.0908,24.8579z M83.9561,24.8579
				c0-7.7832-4.1748-12.5503-10.396-12.5503s-10.3687,4.7671-10.3687,12.5503s4.1475,12.5503,10.3687,12.5503
				S83.9561,32.6143,83.9561,24.8579z"/>
			<path d="M91.6431,0h2.1011v38.8623h-2.1011V0z"/>
			<path d="M122.5195,38.8623h-1.9658v-6.0864h-0.0811c-1.2388,3.7705-5.1709,6.5171-9.8027,6.5171
				c-6.0327,0-10.0996-3.9316-10.0996-10.207V10.8535h2.0737v17.9092c0,5.4673,3.3667,8.6455,8.4565,8.6455
				c5.3057,0,9.3184-3.8247,9.3184-9.7495V10.8535h2.1006V38.8623z"/>
			<path d="M149.356,19.3101c-0.835-4.0132-4.3091-7.0024-9.1299-7.0024c-6.2754,0-10.2612,4.8745-10.2612,12.5503
				c0,7.7295,3.9858,12.5503,10.2612,12.5503c4.7666,0,8.2407-2.7471,9.1025-6.7603h2.0737
				c-0.8345,5.0903-5.2246,8.645-11.1763,8.645c-7.541,0-12.3618-5.521-12.3618-14.4351c0-8.8335,4.8477-14.4355,12.3345-14.4355
				c6.0601,0,10.396,3.8784,11.231,8.8877H149.356z"/>
			<path d="M156.5854,10.8535h1.9658v5.521h0.0542c1.1577-3.8516,3.7974-5.9521,7.5137-5.9521c1.1045,0,2.1006,0.2422,2.6123,0.458
				v2.1006c-0.5923-0.2964-1.5889-0.5654-2.9082-0.5654c-4.417,0-7.1372,3.7432-7.1372,8.9951v17.4517h-2.1006V10.8535z"/>
			<path d="M171.4912,30.5674c0-5.252,4.04-8.2949,11.231-8.7261l7.2715-0.4307v-1.9121c0-2.6934-1.8853-4.2554-4.8477-4.2554
				c-2.9355,0-4.7939,1.4541-5.1709,3.582h-7.1909c0.2964-5.6021,5.063-9.4531,12.7119-9.4531
				c7.4062,0,12.2271,3.8242,12.2271,9.6416v19.8486h-7.5947v-4.417h-0.1616c-1.6162,3.0703-5.1982,4.875-8.8066,4.875
				C175.666,39.3203,171.4912,35.7651,171.4912,30.5674z M189.9937,28.2783v-2.1011l-6.0869,0.3774
				c-2.9355,0.2153-4.605,1.5352-4.605,3.5815c0,2.1548,1.7773,3.5015,4.4438,3.5015
				C187.1655,33.6377,189.9937,31.4023,189.9937,28.2783z"/>
			<path d="M203.3364,9.9912h7.5947v5.1982h0.1616c1.0234-3.6631,3.4741-5.6558,6.8677-5.6558c0.9155,0,1.6968,0.1348,2.2354,0.2964
				v6.9214c-0.6465-0.2695-1.7236-0.458-2.855-0.458c-3.8779,0-6.1406,2.3701-6.1406,6.4365v16.1323h-7.8638V9.9912z"/>
			<path d="M234.9165,3.3394v6.6519h5.3325v5.9253h-5.3325v13.8159c0,2.2085,1.0771,3.2588,3.3931,3.2588
				c0.7002,0,1.4277-0.0537,1.9121-0.1348v5.7905c-0.8076,0.1885-2.1543,0.3232-3.7432,0.3232
				c-6.7871,0-9.4263-2.2622-9.4263-7.8911V15.9165h-4.0669V9.9912h4.0669V3.3394H234.9165z"/>
			<path d="M269.0439,30.0288c-0.8618,5.6558-6.0327,9.4531-13.1699,9.4531c-8.8872,0-14.2197-5.6826-14.2197-14.9204
				c0-9.2104,5.3862-15.1895,13.9238-15.1895c8.4023,0,13.708,5.6826,13.708,14.4624v2.397h-19.9023v0.4849
				c0,4.1201,2.6123,6.9482,6.625,6.9482c2.8818,0,5.0903-1.4272,5.8174-3.6357H269.0439z M249.4644,21.4106h12.2539
				c-0.1616-3.6899-2.5586-6.2212-6.0596-6.2212C252.2114,15.1895,249.7339,17.8018,249.4644,21.4106z"/>
		</g>
	</g>
</g>
<g>
</g>
<g>
</g>
<g>
</g>
<g>
</g>
<g>
</g>
<g>
</g>
<g>
</g>
<g>
</g>
<g>
</g>
<g>
</g>
<g>
</g>
<g>
</g>
<g>
</g>
<g>
</g>
<g>
</g>
</svg>
