<?xml version="1.0" encoding="utf-8"?>
<!-- Generator: Adobe Illustrator 24.0.1, SVG Export Plug-In . SVG Version: 6.00 Build 0)  -->
<svg version="1.1" id="Layer_1" xmlns="http://www.w3.org/2000/svg" xmlns:xlink="http://www.w3.org/1999/xlink" x="0px" y="0px"
	 width="21px" height="17.0566px" viewBox="0 0 21 17.0566" style="enable-background:new 0 0 21 17.0566;" xml:space="preserve">
<g>
	<path d="M18.8545,4.8105c0,5.6895-4.3301,12.2461-12.2451,12.2461c-2.4385,0-4.7041-0.707-6.6094-1.9326
		c0.3467,0.04,0.6797,0.0537,1.0391,0.0537c2.0127,0,3.8643-0.6797,5.3438-1.8389c-1.8926-0.04-3.4775-1.2793-4.0244-2.9854
		c0.2666,0.04,0.5332,0.0674,0.8125,0.0674c0.3867,0,0.7734-0.0537,1.1328-0.1475C2.332,9.874,0.8525,8.1416,0.8525,6.0498V5.9971
		C1.4258,6.3164,2.0918,6.5166,2.7979,6.543c-1.1592-0.7725-1.918-2.0918-1.918-3.584c0-0.7998,0.2129-1.5332,0.5859-2.1729
		C3.584,3.3984,6.7686,5.1035,10.3398,5.29c-0.0664-0.3193-0.1064-0.6523-0.1064-0.9854C10.2334,1.9326,12.1523,0,14.5371,0
		c1.2393,0,2.3584,0.5205,3.1445,1.3594c0.9727-0.1865,1.9062-0.5459,2.7324-1.0391c-0.3203,0.999-1,1.8389-1.8926,2.3721
		c0.8662-0.0938,1.7061-0.333,2.4785-0.667c-0.5859,0.8535-1.3193,1.6123-2.1582,2.2256
		C18.8545,4.4375,18.8545,4.624,18.8545,4.8105z"/>
</g>
<g>
</g>
<g>
</g>
<g>
</g>
<g>
</g>
<g>
</g>
<g>
</g>
<g>
</g>
<g>
</g>
<g>
</g>
<g>
</g>
<g>
</g>
<g>
</g>
<g>
</g>
<g>
</g>
<g>
</g>
</svg>
