<?xml version="1.0" encoding="utf-8"?>
<!-- Generator: Adobe Illustrator 24.0.1, SVG Export Plug-In . SVG Version: 6.00 Build 0)  -->
<svg version="1.1" id="Layer_1" xmlns="http://www.w3.org/2000/svg" xmlns:xlink="http://www.w3.org/1999/xlink" x="0px" y="0px"
	 width="19.375px" height="19.375px" viewBox="0 0 19.375 19.375" style="enable-background:new 0 0 19.375 19.375;"
	 xml:space="preserve">
<g>
	<path d="M19.375,9.6875c0,5.3516-4.3359,9.6875-9.6875,9.6875S0,15.0391,0,9.6875S4.3359,0,9.6875,0S19.375,4.3359,19.375,9.6875z
		 M2.0312,11.25h3.0352C5.0273,10.7383,5,10.2227,5,9.6875S5.0273,8.6367,5.0664,8.125H2.0312
		C1.9297,8.6289,1.875,9.1523,1.875,9.6875S1.9297,10.7461,2.0312,11.25z M6.5273,2.5508C4.8516,3.293,3.4922,4.6094,2.6836,6.25
		h2.625C5.5703,4.8242,5.9922,3.5625,6.5273,2.5508z M6.5273,16.8242c-0.5352-1.0117-0.957-2.2734-1.2188-3.6992h-2.625
		C3.4922,14.7656,4.8516,16.082,6.5273,16.8242z M12.5039,9.6875c0-0.5469-0.0312-1.0625-0.0742-1.5625H6.9492
		c-0.043,0.5-0.0742,1.0156-0.0742,1.5625S6.9062,10.75,6.9492,11.25h5.4766C12.4688,10.75,12.5039,10.2344,12.5039,9.6875z
		 M7.2188,6.25h4.9375c-0.5703-2.7656-1.7422-4.375-2.4688-4.375S7.7891,3.4844,7.2188,6.25z M12.1602,13.125H7.2188
		C7.7891,15.8906,8.9609,17.5,9.6875,17.5S11.5859,15.8906,12.1602,13.125z M12.8477,2.5508
		c0.5352,1.0117,0.957,2.2734,1.2188,3.6992h2.625C15.8828,4.6094,14.5234,3.293,12.8477,2.5508z M16.6914,13.125h-2.625
		c-0.2656,1.4258-0.6836,2.6875-1.2188,3.6992C14.5234,16.082,15.8828,14.7656,16.6914,13.125z M17.3438,11.25
		C17.4453,10.7461,17.5,10.2227,17.5,9.6875s-0.0547-1.0586-0.1562-1.5625h-3.0352c0.0391,0.5117,0.0664,1.0273,0.0664,1.5625
		s-0.0273,1.0508-0.0664,1.5625H17.3438z"/>
</g>
<g>
</g>
<g>
</g>
<g>
</g>
<g>
</g>
<g>
</g>
<g>
</g>
<g>
</g>
<g>
</g>
<g>
</g>
<g>
</g>
<g>
</g>
<g>
</g>
<g>
</g>
<g>
</g>
<g>
</g>
</svg>
