<?xml version="1.0" encoding="utf-8"?>
<!-- Generator: Adobe Illustrator 24.0.1, SVG Export Plug-In . SVG Version: 6.00 Build 0)  -->
<svg version="1.1" id="Layer_1" xmlns="http://www.w3.org/2000/svg" xmlns:xlink="http://www.w3.org/1999/xlink" x="0px" y="0px"
	 width="31.5005px" height="31.5005px" viewBox="0 0 31.5005 31.5005" style="enable-background:new 0 0 31.5005 31.5005;"
	 xml:space="preserve">
<g>
	<path d="M31.5005,15.6162c0,8.6069-7.1587,15.6099-15.7573,15.6099h-0.0068c-2.6162,0-5.1826-0.6533-7.4609-1.8984L0,31.5005
		l2.2148-8.0859c-1.3643-2.3691-2.0811-5.0557-2.0811-7.8052C0.1338,7.0029,7.1367,0,15.7432,0
		c4.1689,0,8.0928,1.624,11.0386,4.5771C29.729,7.5303,31.5005,11.4473,31.5005,15.6162z M28.8638,15.6162
		c0.0059-3.4658-1.498-6.7217-3.9448-9.1758c-2.4473-2.4536-5.7021-3.8037-9.1689-3.8037c-7.1582,0-12.9795,5.8218-12.9795,12.9727
		c0,2.4546,0.6816,4.8384,1.9824,6.9048l0.3096,0.4922l-1.3076,4.7891l4.9072-1.2871l0.4717,0.2812
		c1.9893,1.1816,4.2744,1.8066,6.6094,1.8066C22.8936,28.5962,28.8638,22.7749,28.8638,15.6162z M23.5967,19.3433
		c0.0986,0.1621,0.0986,0.9424-0.2246,1.8564s-1.8779,1.7441-2.6299,1.8564c-1.2373,0.1826-2.208,0.0908-4.6826-0.9775
		c-3.917-1.6943-6.4688-5.6323-6.666-5.8931c-0.1895-0.2598-1.5889-2.1162-1.5889-4.0352c0-1.9199,1.0059-2.8623,1.3643-3.2559
		c0.3584-0.3867,0.7803-0.4854,1.04-0.4854c0.2607,0,0.5205,0,0.7461,0.0142c0.2383,0.0142,0.5625-0.0913,0.8789,0.668
		c0.3232,0.7808,1.1035,2.6997,1.2021,2.897s0.1611,0.4219,0.0352,0.6816c-0.7451,1.4912-1.5469,1.4414-1.1465,2.1309
		c1.5117,2.5952,3.0166,3.4946,5.3086,4.6411c0.3867,0.1973,0.6191,0.1621,0.8438-0.0986c0.2324-0.2666,0.9775-1.1387,1.2373-1.5322
		c0.2607-0.3945,0.5205-0.3311,0.8789-0.1973c0.3594,0.127,2.2783,1.0684,2.665,1.2656
		C23.2451,19.0688,23.5059,19.1675,23.5967,19.3433z"/>
</g>
<g>
</g>
<g>
</g>
<g>
</g>
<g>
</g>
<g>
</g>
<g>
</g>
<g>
</g>
<g>
</g>
<g>
</g>
<g>
</g>
<g>
</g>
<g>
</g>
<g>
</g>
<g>
</g>
<g>
</g>
</svg>
