<?xml version="1.0" encoding="utf-8"?>
<!-- Generator: Adobe Illustrator 24.0.1, SVG Export Plug-In . SVG Version: 6.00 Build 0)  -->
<svg version="1.1" id="Layer_1" xmlns="http://www.w3.org/2000/svg" xmlns:xlink="http://www.w3.org/1999/xlink" x="0px" y="0px"
	 width="299.1px" height="83.6px" viewBox="0 0 299.1 83.6" style="enable-background:new 0 0 299.1 83.6;" xml:space="preserve">
<style type="text/css">
	.st0{fill:#7D47DB;}
	.st1{fill:#883DE3;}
</style>
<title>divinodisenio</title>
<image style="display:none;overflow:visible;" width="684" height="244" xlink:href="../../../../../../../../Users/federico/Desktop/Screen Shot 2020-07-22 at 13.14.20.png"  transform="matrix(0.5 0 0 0.5 -16.9 -11.7)">
</image>
<g>
	<g>
		<g>
			<path id="_Compound_Path__9_" class="st0" d="M64.7,33.2l-3-3c-1-1-2.5-1-3.5,0l0,0L48.4,40c-0.4,0.4-1.1,0.4-1.5,0l-9.8-9.8
				c-1-1-2.5-1-3.5,0l0,0l-3,3c-4.4,4.4-4.4,11.4,0,15.8c2.1,2.1,4.9,3.3,7.9,3.3l0,0c3,0,5.8-1.2,7.9-3.3l0.6-0.6
				c0.4-0.4,1.1-0.4,1.5,0l0.6,0.6c4.3,4.4,11.3,4.5,15.8,0.3s4.5-11.3,0.3-15.8C64.9,33.4,64.8,33.3,64.7,33.2L64.7,33.2z
				 M42.9,45.5c-2.5,2.3-6.5,2.1-8.8-0.4c-2.1-2.4-2.1-6,0-8.3l0.5-0.7c0.4-0.4,1.1-0.4,1.5,0l7.3,7.3c0.4,0.4,0.4,1.1,0,1.5
				L42.9,45.5z M61.2,45.5c-2.4,2.4-6.4,2.4-8.8,0l0,0l-0.6-0.6c-0.4-0.4-0.4-1.1,0-1.5l7.3-7.3c0.4-0.4,1.1-0.4,1.5,0l0.6,0.6
				C63.6,39.1,63.6,43.1,61.2,45.5L61.2,45.5L61.2,45.5z"/>
			<g>
				<path class="st0" d="M12.9,52.9L12.9,52.9l-4-0.1l-0.4-1.4l5.5,0.3l0.5,1.6l-4.6,3.1L9.5,55L12.9,52.9z"/>
				<path class="st0" d="M13.2,47.2l0.2,1.3l-5.2,0.7L8,47.9L13.2,47.2z"/>
				<path class="st0" d="M8.6,43.5c0,0.5,0.2,0.7,0.5,0.7s0.5-0.3,0.6-0.8l0.1-0.5c0.2-1,0.7-1.6,1.6-1.6c1,0,1.6,0.8,1.6,2.1
					s-0.6,2.2-1.8,2.2v-1.2c0.5,0,0.8-0.4,0.7-1c0-0.5-0.2-0.8-0.6-0.8c-0.3,0-0.4,0.3-0.6,0.8l-0.1,0.5c-0.2,0.9-0.6,1.5-1.4,1.5
					c-1,0-1.6-0.8-1.7-2c0-1.2,0.6-2,1.6-2v1.2C8.9,42.7,8.6,43,8.6,43.5z"/>
				<path class="st0" d="M8.4,34.6l3.5,0.5c1.2,0.2,1.7,1.2,1.5,2.5s-1,2.1-2.2,1.9L7.8,39L8,37.7l3.4,0.5c0.5,0.1,0.8-0.3,0.9-0.8
					c0.1-0.6-0.2-1-0.6-1.1l-3.4-0.5L8.4,34.6z"/>
				<path class="st0" d="M13.9,34l-4.4-3.3l0.6-1.6h5.5l-0.4,1.3h-1.1l-0.6,1.7l0.9,0.7L13.9,34z M13,30.3h-1.9l0,0l1.5,1.2L13,30.3
					z"/>
				<path class="st0" d="M11.6,25.3l0.6-1.1l3.7,2l1-1.9l0.9,0.5l-1.6,3L11.6,25.3z"/>
				<path class="st0" d="M20,16.4c-0.4-0.3-0.9-0.2-1.3,0.2c-0.5,0.6-0.4,1.3,0.4,2s1.5,0.7,2,0.1c0.4-0.4,0.4-0.9,0.1-1.3l0.8-1
					c0.6,0.7,0.8,1.9-0.1,3c-0.9,1.1-2.4,1.2-3.7,0.1c-1.3-1.1-1.3-2.6-0.4-3.6c0.8-0.9,2-1.2,3-0.4L20,16.4z"/>
				<path class="st0" d="M26.4,15.1c-1.1,0.9-2.6,0.8-3.6-0.6c-1.1-1.4-0.8-2.8,0.3-3.7c1.1-0.9,2.6-0.8,3.6,0.6
					C27.8,12.8,27.5,14.2,26.4,15.1z M23.8,11.7c-0.6,0.5-0.6,1.2,0,2s1.3,1,1.9,0.5s0.6-1.2,0-2S24.4,11.2,23.8,11.7z"/>
				<path class="st0" d="M28.6,7.2l2.7,2.3h0.1L31.1,6l1.4-0.7l2.4,4.7l-1.1,0.6l-1.5-2.9l0,0l0.3,3.4l-0.7,0.4l-2.6-2.4l0,0
					l1.5,2.9l-1.2,0.6l-2.4-4.7L28.6,7.2z"/>
				<path class="st0" d="M36.5,3.9l2.1,2.8h0.1l0.4-3.5l1.5-0.4L42,7.9l-1.2,0.3l-0.9-3.1l0,0l-0.4,3.4l-0.8,0.2l-2.1-2.8l0,0
					l0.9,3.2l-1.2,0.3l-1.4-5.1L36.5,3.9z"/>
				<path class="st0" d="M47.6,2.1l0.2,3.4c0.1,1.2-0.8,1.9-2.1,2S43.4,7,43.4,5.8l-0.2-3.5l1.3-0.1l0.2,3.4c0,0.5,0.4,0.7,1,0.7
					c0.6,0.1,0.9-0.2,0.9-0.7l-0.2-3.4L47.6,2.1z"/>
				<path class="st0" d="M54.1,7.8L53,7.7l-1.8-3.2l0,0l-0.3,3l-1.3-0.2l0.6-5.2l1.1,0.1l1.8,3.2l0,0l0.3-3l1.2,0.2L54.1,7.8z"/>
				<path class="st0" d="M57,8.5l-1.2-0.3L57,3.1l1.2,0.3L57,8.5z"/>
				<path class="st0" d="M63.2,7c0.1-0.5-0.1-1-0.6-1.2c-0.7-0.3-1.4,0.1-1.7,1c-0.4,1-0.1,1.6,0.6,1.9c0.5,0.2,1,0.1,1.2-0.4
					l1.2,0.5c-0.4,0.8-1.5,1.5-2.9,1c-1.3-0.5-2-1.8-1.4-3.4s2-2.1,3.3-1.6c1.2,0.5,1.8,1.5,1.5,2.7L63.2,7z"/>
				<path class="st0" d="M64.4,11.1l4.2-3.5L70,8.5l-1.2,5.4l-1.1-0.8L68,12l-1.6-0.9l-0.8,0.7L64.4,11.1z M68.2,11l0.5-1.9l0,0
					l-1.5,1.3L68.2,11z"/>
				<path class="st0" d="M72.8,10.2l3.4,2.8l-0.7,0.8l-1.2-1L71.6,16l-1-0.8l2.7-3.2l-1.2-1L72.8,10.2z"/>
				<path class="st0" d="M74.7,19.1l-0.9-0.9l3.8-3.6l0.9,0.9L74.7,19.1z"/>
				<path class="st0" d="M77.3,22.5c-0.8-1.2-0.6-2.6,0.8-3.6s2.8-0.6,3.6,0.5c0.8,1.2,0.6,2.6-0.8,3.6C79.5,24,78.1,23.6,77.3,22.5
					z M80.8,20c-0.4-0.6-1.1-0.7-2-0.1c-0.8,0.6-1,1.3-0.6,1.9s1.1,0.7,2,0.1C81,21.3,81.2,20.6,80.8,20z"/>
				<path class="st0" d="M81.4,29.9l-0.5-1l1.9-3.2l0,0L80.1,27l-0.5-1.1l4.8-2.2l0.5,1L83,27.8l0,0l2.7-1.3l0.5,1.1L81.4,29.9z"/>
			</g>
			<g>
				<path class="st0" d="M14.1,62.7c0.5-0.4,1-0.3,1.6-0.1c0.1-0.4,0.3-0.8,0.7-1.1c0.6-0.5,1.5-0.4,2,0.3s0.4,1.5-0.2,1.9
					c-0.4,0.4-0.8,0.4-1.4,0.2l-0.3-0.1l-0.2,1.1c0.3,0,0.6-0.2,0.9-0.4l0.6,0.8c-0.6,0.5-1.2,0.8-1.7,0.8l-0.2,1.2l-0.8-1l0.1-0.4
					c-0.5-0.1-0.8-0.5-1.1-0.8C13.4,64.1,13.5,63.2,14.1,62.7z M15.6,63.5c-0.3-0.1-0.5-0.1-0.6,0.1c-0.4,0.2-0.4,0.5-0.1,0.9
					c0.1,0.2,0.3,0.3,0.5,0.4L15.6,63.5z M17,63.1c0.3,0.1,0.5,0.1,0.6,0s0.2-0.3,0-0.6c-0.2-0.2-0.4-0.2-0.6-0.1
					c-0.2,0.1-0.2,0.3-0.3,0.6L17,63.1z"/>
				<path class="st0" d="M25.3,70.3c-0.6-0.5-1.3-0.3-1.9,0.5s-0.6,1.5,0.1,2c0.6,0.4,1.1,0.4,1.4-0.1L24,72.1l0.5-0.7l1.8,1.3
					l-0.4,0.6c-0.8,1.1-2.1,1.2-3.2,0.4c-1.2-0.9-1.4-2.3-0.4-3.7c1-1.4,2.5-1.5,3.6-0.7c1,0.7,1.3,1.9,0.8,2.8l-1-0.8
					C25.9,71,25.7,70.6,25.3,70.3z"/>
				<path class="st0" d="M29.9,72l2,0.9c1.1,0.5,1.4,1.4,1,2.4c-0.3,0.7-0.8,1-1.5,1l0.1,2.3L30.3,78l-0.1-2l-0.6-0.3l-0.8,1.6
					l-1.2-0.5L29.9,72z M30.6,75c0.5,0.2,0.9,0.2,1.1-0.3c0.2-0.4,0-0.8-0.5-1l-0.6-0.2L30,74.8L30.6,75z"/>
				<path class="st0" d="M34.2,79.6l3-4.6l1.6,0.4l0.4,5.5l-1.3-0.3l-0.1-1.2L36,79l-0.6,1L34.2,79.6z M37.9,78.4l-0.1-1.9l0,0
					l-1,1.7L37.9,78.4z"/>
				<path class="st0" d="M42.8,76.1l2.2,0.1c1.2,0.1,1.9,0.8,1.8,1.9c-0.1,1.1-0.9,1.8-2.1,1.7l-0.9-0.1l-0.1,1.6l-1.3-0.1
					L42.8,76.1z M44.5,78.8c0.6,0,0.9-0.3,0.9-0.7c0-0.5-0.3-0.8-0.8-0.8H44l-0.1,1.6L44.5,78.8z"/>
				<path class="st0" d="M49.2,76.3l1.3-0.2l0.3,2.1l2-0.3l-0.3-2.1l1.3-0.2l0.7,5.2l-1.3,0.3L52.9,79l-2,0.3l0.3,2.1l-1.3,0.2
					L49.2,76.3z"/>
				<path class="st0" d="M58.9,79.7l-1.2,0.4l-1.5-5l1.2-0.4L58.9,79.7z"/>
				<path class="st0" d="M63.8,74.2c-0.3-0.4-0.8-0.6-1.3-0.3c-0.7,0.3-0.9,1-0.4,1.9c0.4,0.9,1.1,1.2,1.8,0.9
					c0.5-0.2,0.7-0.7,0.6-1.2l1.2-0.5c0.3,0.9,0,2.1-1.3,2.7c-1.3,0.6-2.7,0.2-3.4-1.4s-0.2-2.9,1.1-3.5c1.1-0.5,2.3-0.3,2.9,0.8
					L63.8,74.2z"/>
				<path class="st0" d="M72.5,72.5L69,68.6l1.4-1.3c1.2-1.1,2.6-1,3.7,0.2s1,2.6-0.2,3.7L72.5,72.5z M73.2,70.5
					c0.7-0.6,0.7-1.2,0-2.1c-0.8-0.8-1.4-0.8-2.1-0.2l-0.4,0.4l2.1,2.3L73.2,70.5z"/>
				<path class="st0" d="M73.9,63.8l2.2-2.9l0.8,0.6l-1.4,1.9l0.9,0.7l1.3-1.8l0.8,0.6l-1.3,1.8l0.9,0.7l1.4-1.9l0.8,0.6L78.1,67
					L73.9,63.8z"/>
				<path class="st0" d="M79.3,57.4c-0.2,0.4-0.2,0.8,0.1,0.9c0.3,0.2,0.6,0,0.9-0.4l0.3-0.4c0.7-0.8,1.4-1.1,2.1-0.7
					c0.9,0.5,1.1,1.4,0.5,2.6c-0.6,1.2-1.6,1.7-2.7,1.1l0.6-1.1c0.5,0.2,0.9,0,1.1-0.5s0.2-0.8-0.1-1c-0.3-0.1-0.5,0-0.9,0.5
					l-0.4,0.4c-0.6,0.7-1.3,1-2,0.6c-0.9-0.4-1.1-1.5-0.5-2.6s1.5-1.5,2.4-1l-0.6,1.1C79.8,56.9,79.5,57,79.3,57.4z"/>
				<path class="st0" d="M85.6,53.4l-0.4,1.2l-5-1.7l0.4-1.2L85.6,53.4z"/>
				<path class="st0" d="M82.9,47c-0.1,0.7,0.3,1.3,1.3,1.5s1.6-0.2,1.8-0.9c0.1-0.7-0.2-1.1-0.7-1.2l-0.2,1l-0.9-0.2l0.4-2.2
					l0.7,0.1c1.4,0.2,2,1.3,1.8,2.7c-0.3,1.5-1.4,2.3-3.1,2s-2.5-1.6-2.2-2.9c0.2-1.2,1.1-2,2.1-1.9l-0.2,1.1
					C83.3,46.2,83,46.5,82.9,47z"/>
				<path class="st0" d="M87.5,37.5v1.1l-3,2.2l0,0l3-0.1V42l-5.1,0.1V41l3-2.1l0,0l-3,0.1v-1.3L87.5,37.5z"/>
			</g>
		</g>
	</g>
	<g>
		<path class="st1" d="M124,41.9c0,3-0.9,5.3-2.7,7c-1.7,1.6-3.9,2.4-6.5,2.4h-10.5v-0.9h0.2c0.2,0,0.4,0,0.7-0.1s0.5-0.2,0.8-0.3
			c0.2-0.2,0.4-0.4,0.4-0.6c0.1-0.2,0.1-0.5,0.1-0.9c0-0.3,0-0.6,0-0.7V35.4c0-0.3,0-0.5-0.1-0.8c-0.1-0.2-0.2-0.4-0.4-0.6
			c-0.2-0.2-0.4-0.3-0.7-0.3c-0.3,0-0.5-0.1-0.7-0.1h-0.2v-0.9h10.3c2.5,0,4.7,0.9,6.5,2.7S124,39.4,124,41.9z M117.8,42.7
			c0-3.4-0.4-5.7-1.3-7c-0.8-1.2-1.9-1.8-3.3-1.8h-0.7v13.8c0,0.7,0.1,1.3,0.4,1.7c0.3,0.5,0.8,0.8,1.6,0.8c1,0,1.8-0.5,2.3-1.5
			C117.5,47.5,117.8,45.5,117.8,42.7z"/>
		<path class="st1" d="M133.8,51.3h-8.2v-0.9h0.2c0.1,0,0.4,0,0.7-0.1c0.3-0.1,0.5-0.3,0.6-0.6c0.1-0.3,0.2-0.7,0.2-1.2
			c0-0.1,0-0.3,0-0.4s0-0.3,0-0.4v-3.7c0-0.3,0-0.6,0-0.8c0-0.3,0-0.5,0-0.8c0-0.2-0.1-0.4-0.2-0.5c-0.3-0.2-0.5-0.4-0.8-0.7
			c-0.3-0.2-0.5-0.4-0.7-0.6l-0.3-0.2c0.4-0.1,1-0.3,1.6-0.5c0.9-0.3,1.7-0.6,2.5-0.9c0.4-0.2,0.9-0.4,1.4-0.6s1.1-0.5,1.7-0.8v10
			c0,0.8,0,1.4,0,1.8c0,0.4,0.2,0.7,0.5,0.8c0,0,0.2,0.1,0.4,0.1s0.4,0.1,0.5,0.1h0.2V51.3z M129.7,37.5c-0.9,0-1.6-0.3-2.1-0.8
			c-0.5-0.6-0.8-1.2-0.8-2c0-0.8,0.2-1.4,0.7-2c0.5-0.6,1.3-0.9,2.2-0.9c0.9,0,1.6,0.3,2.1,0.8c0.5,0.6,0.8,1.2,0.8,2
			c0,0.8-0.2,1.4-0.7,1.9C131.3,37.2,130.6,37.5,129.7,37.5z"/>
		<path class="st1" d="M150.7,39.3c-0.3,0-0.5,0-0.6,0c-0.1,0-0.3,0.1-0.5,0.2c-0.3,0.2-0.6,0.6-0.9,1.1c-0.1,0.2-0.3,0.6-0.5,1
			L143.1,52l-5.4-10c-0.2-0.4-0.4-0.8-0.6-1.2c-0.2-0.4-0.4-0.7-0.7-1c-0.2-0.2-0.4-0.3-0.6-0.3c-0.3,0-0.4-0.1-0.5-0.1H135v-1h9.2
			v1H144c-0.2,0-0.4,0-0.6,0c-0.2,0-0.3,0.1-0.4,0.1s-0.2,0.2-0.2,0.4c0,0.2,0,0.4,0.2,0.6c0.1,0.2,0.2,0.5,0.3,0.7l1.9,4.1l1.9-3.7
			c0.1-0.2,0.2-0.4,0.3-0.7c0.1-0.2,0.1-0.4,0.1-0.7c0-0.3-0.1-0.5-0.2-0.6c-0.1-0.1-0.3-0.2-0.5-0.3s-0.5-0.1-0.7-0.1h-0.2v-1h4.9
			V39.3z"/>
		<path class="st1" d="M160.7,51.3h-8.2v-0.9h0.2c0.1,0,0.4,0,0.7-0.1c0.3-0.1,0.5-0.3,0.6-0.6c0.1-0.3,0.2-0.7,0.2-1.2
			c0-0.1,0-0.3,0-0.4s0-0.3,0-0.4v-3.7c0-0.3,0-0.6,0-0.8c0-0.3,0-0.5,0-0.8c0-0.2-0.1-0.4-0.2-0.5c-0.3-0.2-0.5-0.4-0.8-0.7
			c-0.3-0.2-0.5-0.4-0.7-0.6l-0.3-0.2c0.4-0.1,1-0.3,1.6-0.5c0.9-0.3,1.7-0.6,2.5-0.9c0.4-0.2,0.9-0.4,1.4-0.6s1.1-0.5,1.7-0.8v10
			c0,0.8,0,1.4,0,1.8c0,0.4,0.2,0.7,0.5,0.8c0,0,0.2,0.1,0.4,0.1s0.4,0.1,0.5,0.1h0.2V51.3z M156.6,37.5c-0.9,0-1.6-0.3-2.1-0.8
			c-0.5-0.6-0.8-1.2-0.8-2c0-0.8,0.2-1.4,0.7-2c0.5-0.6,1.3-0.9,2.2-0.9c0.9,0,1.6,0.3,2.1,0.8c0.5,0.6,0.8,1.2,0.8,2
			c0,0.8-0.2,1.4-0.7,1.9C158.3,37.2,157.5,37.5,156.6,37.5z"/>
		<path class="st1" d="M178.9,51.3h-8.3v-0.9h0.2c0.1,0,0.3,0,0.4,0c0.1,0,0.3-0.1,0.4-0.1c0.3-0.1,0.4-0.3,0.5-0.6
			c0.1-0.3,0.1-0.6,0.1-1c0-0.2,0-0.4,0-0.5c0-0.2,0-0.3,0-0.4v-5.1c0-0.2,0-0.4,0-0.6c0-0.6-0.1-1-0.2-1.3
			c-0.2-0.5-0.6-0.7-1.2-0.7c-0.5,0-0.9,0.2-1.1,0.7s-0.3,1-0.3,1.6v9h-6.8v-0.9h0.2c0.4,0,0.7,0,0.9-0.1c0.2-0.1,0.4-0.3,0.5-0.5
			c0.1-0.3,0.1-0.6,0.1-1c0-0.2,0-0.3,0-0.5c0-0.2,0-0.3,0-0.5v-3.7c0-0.2,0-0.3,0-0.4c0-0.2,0-0.5-0.1-0.7
			c-0.1-0.2-0.2-0.4-0.4-0.7s-0.4-0.4-0.6-0.5c-0.4-0.2-0.7-0.4-1.1-0.6l-0.2-0.1c0.2-0.1,0.8-0.3,1.7-0.7c1.1-0.5,1.9-0.9,2.7-1.2
			c0.2-0.1,0.8-0.4,1.6-0.8c0.4-0.2,0.7-0.4,1.1-0.6V40l0.3-0.3c1.1-1.1,2.4-1.7,3.9-1.7c1.1,0,2.1,0.4,3,1.2
			c0.8,0.8,1.3,1.7,1.3,2.8v5.7c0,1.6,0.2,2.5,0.7,2.6c0.3,0.1,0.5,0.1,0.8,0.1h0.2V51.3z"/>
		<path class="st1" d="M194.9,44.6c0,2-0.8,3.8-2.3,5.1c-1.5,1.3-3.1,2-5,2c-2,0-3.8-0.7-5.3-2.1c-1.5-1.4-2.3-3.1-2.3-5
			c0-1.9,0.8-3.5,2.3-4.8c1.5-1.3,3.3-1.9,5.3-1.9c1.9,0,3.6,0.6,5,1.9C194.2,41.1,194.9,42.7,194.9,44.6z M189.4,44.7
			c0-1.9-0.1-3.1-0.2-3.8c-0.3-1.4-0.8-2.1-1.7-2.1c-0.7,0-1.1,0.3-1.5,0.9c-0.4,0.7-0.6,2-0.6,3.9c0,0.2,0,0.4,0,0.6
			c0,0.2,0,0.3,0,0.4v1.3c0,1.6,0.1,2.7,0.3,3.3c0.3,1.1,0.9,1.6,1.7,1.6c0.8,0,1.3-0.4,1.6-1.3c0.2-0.6,0.3-1.5,0.3-2.8
			c0-0.3,0-0.7,0-1S189.4,45,189.4,44.7z"/>
		<path class="st1" d="M221.8,41.9c0,3-0.9,5.3-2.7,7c-1.7,1.6-3.9,2.4-6.5,2.4h-10.5v-0.9h0.2c0.2,0,0.4,0,0.7-0.1s0.5-0.2,0.8-0.3
			c0.2-0.2,0.4-0.4,0.4-0.6c0.1-0.2,0.1-0.5,0.1-0.9c0-0.3,0-0.6,0-0.7V35.4c0-0.3,0-0.5-0.1-0.8c-0.1-0.2-0.2-0.4-0.4-0.6
			c-0.2-0.2-0.4-0.3-0.7-0.3c-0.3,0-0.5-0.1-0.7-0.1h-0.2v-0.9h10.3c2.5,0,4.7,0.9,6.5,2.7S221.8,39.4,221.8,41.9z M215.6,42.7
			c0-3.4-0.4-5.7-1.3-7c-0.8-1.2-1.9-1.8-3.3-1.8h-0.7v13.8c0,0.7,0.1,1.3,0.4,1.7c0.3,0.5,0.8,0.8,1.6,0.8c1,0,1.8-0.5,2.3-1.5
			C215.3,47.5,215.6,45.5,215.6,42.7z"/>
		<path class="st1" d="M231.6,51.3h-8.2v-0.9h0.2c0.1,0,0.4,0,0.7-0.1c0.3-0.1,0.5-0.3,0.6-0.6c0.1-0.3,0.2-0.7,0.2-1.2
			c0-0.1,0-0.3,0-0.4s0-0.3,0-0.4v-3.7c0-0.3,0-0.6,0-0.8c0-0.3,0-0.5,0-0.8c0-0.2-0.1-0.4-0.2-0.5c-0.3-0.2-0.5-0.4-0.8-0.7
			c-0.3-0.2-0.5-0.4-0.7-0.6l-0.3-0.2c0.4-0.1,1-0.3,1.6-0.5c0.9-0.3,1.7-0.6,2.5-0.9c0.4-0.2,0.9-0.4,1.4-0.6s1.1-0.5,1.7-0.8v10
			c0,0.8,0,1.4,0,1.8c0,0.4,0.2,0.7,0.5,0.8c0,0,0.2,0.1,0.4,0.1s0.4,0.1,0.5,0.1h0.2V51.3z M227.5,37.5c-0.9,0-1.6-0.3-2.1-0.8
			c-0.5-0.6-0.8-1.2-0.8-2c0-0.8,0.2-1.4,0.7-2c0.5-0.6,1.3-0.9,2.2-0.9c0.9,0,1.6,0.3,2.1,0.8c0.5,0.6,0.8,1.2,0.8,2
			c0,0.8-0.2,1.4-0.7,1.9C229.1,37.2,228.4,37.5,227.5,37.5z"/>
		<path class="st1" d="M244.2,46.7c0,1.6-0.7,2.9-2,3.8c-1.2,0.8-2.5,1.2-4,1.2c-0.8,0-1.6-0.1-2.3-0.2c-0.2,0-0.9-0.2-2.2-0.5
			c-0.1,0-0.2,0-0.4,0s-0.2,0-0.3,0h-0.2v-4.6h1l0,0.2c0.1,1.1,0.7,2.1,1.8,3c1,0.8,1.8,1.2,2.6,1.2c0.5,0,0.9-0.1,1.2-0.4
			c0.3-0.3,0.5-0.6,0.5-1c0-0.4-0.2-0.8-0.5-1.1c-0.3-0.4-1-0.8-2-1.1l-1.2-0.4c-1.1-0.4-2-1-2.6-1.6s-0.9-1.5-0.9-2.5
			c0-1.4,0.6-2.6,1.9-3.5c1.1-0.8,2.4-1.2,3.8-1.2c0.9,0,1.6,0,2,0.1c0.8,0.2,1.3,0.3,1.5,0.3c0.2,0,0.4,0,0.7,0h0.3v3.8h-0.9
			L242,42c-0.3-0.9-0.7-1.6-1.2-2.1c-0.7-0.7-1.5-1.1-2.5-1.1c-0.4,0-0.7,0.1-1,0.4c-0.3,0.2-0.5,0.5-0.5,0.9c0,0.7,0.4,1.2,1.1,1.6
			c0.1,0.1,0.8,0.3,1.9,0.6l0.8,0.2c1.1,0.4,2,0.9,2.6,1.5C243.8,44.8,244.2,45.7,244.2,46.7z"/>
		<path class="st1" d="M257.4,42.8l0,1h-7.4l0.1,0.7c0.2,1.2,0.7,2.3,1.7,3.1c1,0.9,2,1.3,3.1,1.3c0.5,0,0.8,0,1.2-0.1
			c0.3-0.1,0.6-0.2,0.8-0.4l0.5-0.5V49l-0.5,0.5c-1.4,1.5-3,2.2-4.9,2.2c-1.8,0-3.4-0.6-4.7-1.9c-1.3-1.3-2-2.8-2-4.6
			c0-2,0.7-3.7,2-5.1s2.8-2.1,4.5-2.1c1.5,0,2.7,0.5,3.9,1.4C256.8,40.4,257.4,41.5,257.4,42.8z M253.6,41.5c0-0.7-0.1-1.2-0.2-1.6
			c-0.3-0.7-0.8-1-1.5-1c-0.8,0-1.3,0.3-1.7,1c-0.3,0.5-0.4,1.2-0.4,2.1v0.6l0.5,0.1c0.2,0.1,0.5,0.1,0.9,0.1c0.6,0,1.2-0.1,1.7-0.3
			C253.4,42.2,253.6,41.9,253.6,41.5z"/>
		<path class="st1" d="M275.5,51.3h-8.3v-0.9h0.2c0.1,0,0.3,0,0.4,0c0.1,0,0.3-0.1,0.4-0.1c0.3-0.1,0.4-0.3,0.5-0.6
			c0.1-0.3,0.1-0.6,0.1-1c0-0.2,0-0.4,0-0.5c0-0.2,0-0.3,0-0.4v-5.1c0-0.2,0-0.4,0-0.6c0-0.6-0.1-1-0.2-1.3
			c-0.2-0.5-0.6-0.7-1.2-0.7c-0.5,0-0.9,0.2-1.1,0.7s-0.3,1-0.3,1.6v9h-6.8v-0.9h0.2c0.4,0,0.7,0,0.9-0.1c0.2-0.1,0.4-0.3,0.5-0.5
			c0.1-0.3,0.1-0.6,0.1-1c0-0.2,0-0.3,0-0.5c0-0.2,0-0.3,0-0.5v-3.7c0-0.2,0-0.3,0-0.4c0-0.2,0-0.5-0.1-0.7
			c-0.1-0.2-0.2-0.4-0.4-0.7s-0.4-0.4-0.6-0.5c-0.4-0.2-0.7-0.4-1.1-0.6l-0.2-0.1c0.2-0.1,0.8-0.3,1.7-0.7c1.1-0.5,1.9-0.9,2.7-1.2
			c0.2-0.1,0.8-0.4,1.6-0.8c0.4-0.2,0.7-0.4,1.1-0.6V40l0.3-0.3c1.1-1.1,2.4-1.7,3.9-1.7c1.1,0,2.1,0.4,3,1.2
			c0.8,0.8,1.3,1.7,1.3,2.8v5.7c0,1.6,0.2,2.5,0.7,2.6c0.3,0.1,0.5,0.1,0.8,0.1h0.2V51.3z M271.5,33l0,0.3c-0.1,0.7-0.3,1.4-0.7,2
			c-0.3,0.6-0.7,0.9-1.2,1c-0.2,0-0.4,0.1-0.5,0.1c-0.5,0-1.3-0.2-2.5-0.7s-2-0.7-2.5-0.7c-0.3,0-0.7,0.1-1,0.3
			c-0.3,0.2-0.5,0.5-0.6,0.8l-0.1,0.3H262l0-0.4c0.1-0.8,0.3-1.5,0.6-2.1s0.8-0.9,1.4-1c0.3-0.1,0.5-0.1,0.8-0.1
			c0.6,0,1.3,0.2,2.1,0.5c1.7,0.7,2.6,1,2.8,1c0.7,0,1.2-0.3,1.4-1l0-0.2H271.5z"/>
		<path class="st1" d="M291.6,44.6c0,2-0.8,3.8-2.3,5.1c-1.5,1.3-3.1,2-5,2c-2,0-3.8-0.7-5.3-2.1c-1.5-1.4-2.3-3.1-2.3-5
			c0-1.9,0.8-3.5,2.3-4.8c1.5-1.3,3.3-1.9,5.3-1.9c1.9,0,3.6,0.6,5,1.9C290.8,41.1,291.6,42.7,291.6,44.6z M286.1,44.7
			c0-1.9-0.1-3.1-0.2-3.8c-0.3-1.4-0.8-2.1-1.7-2.1c-0.7,0-1.1,0.3-1.5,0.9c-0.4,0.7-0.6,2-0.6,3.9c0,0.2,0,0.4,0,0.6
			c0,0.2,0,0.3,0,0.4v1.3c0,1.6,0.1,2.7,0.3,3.3c0.3,1.1,0.9,1.6,1.7,1.6c0.8,0,1.3-0.4,1.6-1.3c0.2-0.6,0.3-1.5,0.3-2.8
			c0-0.3,0-0.7,0-1S286.1,45,286.1,44.7z"/>
	</g>
</g>
</svg>
