<?xml version="1.0" encoding="utf-8"?>
<!-- Generator: Adobe Illustrator 24.0.1, SVG Export Plug-In . SVG Version: 6.00 Build 0)  -->
<svg version="1.1" id="Layer_1" xmlns="http://www.w3.org/2000/svg" xmlns:xlink="http://www.w3.org/1999/xlink" x="0px" y="0px"
	 width="263px" height="263px" viewBox="0 0 263 263" style="enable-background:new 0 0 263 263;" xml:space="preserve">
<style type="text/css">
	.st0{fill:#F3F2ED;}
	.st1{fill:#7D47DB;}
</style>
<g>
	<rect x="0" y="0" class="st0" width="263" height="263"/>
</g>
<g>
	<g>
		<path id="_Compound_Path__9_" class="st1" d="M164.1306,113.1874l-5.7084-5.7084c-1.9028-1.9028-4.757-1.9028-6.6598,0l0,0
			l-18.6474,18.6474c-0.7611,0.7611-2.0931,0.7611-2.8542,0l-18.6474-18.6474c-1.9028-1.9028-4.757-1.9028-6.6598,0l0,0
			l-5.7084,5.7084c-8.3723,8.3723-8.3723,21.6919,0,30.0642c3.9959,3.9959,9.3237,6.2792,15.0321,6.2792l0,0
			c5.7084,0,11.0362-2.2834,15.0321-6.2792l1.1417-1.1417c0.7611-0.7611,2.0931-0.7611,2.8542,0l1.1417,1.1417
			c8.182,8.3723,21.5016,8.5626,30.0642,0.5708c8.5626-7.9917,8.5626-21.5016,0.5708-30.0642
			C164.5112,113.5679,164.3209,113.3777,164.1306,113.1874L164.1306,113.1874z M122.6497,136.5918
			c-4.757,4.3764-12.3682,3.9959-16.7446-0.7611c-3.9959-4.5667-3.9959-11.4168,0-15.7932l0.9514-1.332
			c0.7611-0.7611,2.0931-0.7611,2.8542,0l13.8904,13.8904c0.7611,0.7611,0.7611,2.0931,0,2.8542L122.6497,136.5918z
			 M157.4709,136.5918c-4.5667,4.5667-12.1779,4.5667-16.7446,0l0,0l-1.1417-1.1417c-0.7611-0.7611-0.7611-2.0931,0-2.8542
			l13.8904-13.8904c0.7611-0.7611,2.0931-0.7611,2.8542,0l1.1417,1.1417C162.0376,124.4139,162.0376,132.0251,157.4709,136.5918
			L157.4709,136.5918L157.4709,136.5918z"/>
		<g>
			<path class="st1" d="M65.5657,150.6725L65.5657,150.6725l-7.6112-0.1903l-0.7611-2.6639l10.4654,0.5708l0.9514,3.0445
				l-8.7529,5.8987l-0.7611-2.6639L65.5657,150.6725z"/>
			<path class="st1" d="M66.1366,139.8265l0.3806,2.4736l-9.8945,1.332l-0.3806-2.4736L66.1366,139.8265z"/>
			<path class="st1" d="M57.3837,132.7862c0,0.9514,0.3806,1.332,0.9514,1.332s0.9514-0.5708,1.1417-1.5222l0.1903-0.9514
				c0.3806-1.9028,1.332-3.0445,3.0445-3.0445c1.9028,0,3.0445,1.5222,3.0445,3.9959s-1.1417,4.1862-3.425,4.1862v-2.2834
				c0.9514,0,1.5222-0.7611,1.332-1.9028c0-0.9514-0.3806-1.5222-1.1417-1.5222c-0.5708,0-0.7611,0.5708-1.1417,1.5222
				l-0.1903,0.9514c-0.3806,1.7125-1.1417,2.8542-2.6639,2.8542c-1.9028,0-3.0445-1.5222-3.2348-3.8056
				c0-2.2834,1.1417-3.8056,3.0445-3.8056v2.2834C57.9546,131.2639,57.3837,131.8348,57.3837,132.7862z"/>
			<path class="st1" d="M57.0032,115.8513l6.6598,0.9514c2.2834,0.3806,3.2348,2.2834,2.8542,4.757
				c-0.3806,2.4736-1.9028,3.9959-4.1862,3.6153l-6.4695-0.9514l0.3806-2.4736l6.4695,0.9514
				c0.9514,0.1903,1.5222-0.5708,1.7125-1.5222c0.1903-1.1417-0.3806-1.9028-1.1417-2.0931l-6.4695-0.9514L57.0032,115.8513z"/>
			<path class="st1" d="M67.4685,114.7096l-8.3723-6.2792l1.1417-3.0445h10.4654l-0.7611,2.4736h-2.0931l-1.1417,3.2348
				l1.7125,1.332L67.4685,114.7096z M65.756,107.6693h-3.6153l0,0l2.8542,2.2834L65.756,107.6693z"/>
			<path class="st1" d="M63.0921,98.1553l1.1417-2.0931l7.0403,3.8056l1.9028-3.6153l1.7125,0.9514l-3.0445,5.7084L63.0921,98.1553z
				"/>
			<path class="st1" d="M79.0756,81.2204c-0.7611-0.5708-1.7125-0.3806-2.4736,0.3806c-0.9514,1.1417-0.7611,2.4736,0.7611,3.8056
				c1.5222,1.332,2.8542,1.332,3.8056,0.1903c0.7611-0.7611,0.7611-1.7125,0.1903-2.4736l1.5222-1.9028
				c1.1417,1.332,1.5222,3.6153-0.1903,5.7084c-1.7125,2.0931-4.5667,2.2834-7.0404,0.1903
				c-2.4736-2.0931-2.4736-4.9473-0.7611-6.8501c1.5222-1.7125,3.8056-2.2834,5.7084-0.7611L79.0756,81.2204z"/>
			<path class="st1" d="M91.2535,78.7467c-2.0931,1.7125-4.9473,1.5222-6.8501-1.1417c-2.0931-2.6639-1.5222-5.3278,0.5708-7.0404
				s4.9473-1.5222,6.8501,1.1417C93.9174,74.3703,93.3466,77.0342,91.2535,78.7467z M86.3062,72.2772
				c-1.1417,0.9514-1.1417,2.2834,0,3.8056s2.4736,1.9028,3.6153,0.9514c1.1417-0.9514,1.1417-2.2834,0-3.8056
				C88.7799,71.7064,87.4479,71.3258,86.3062,72.2772z"/>
			<path class="st1" d="M95.4397,63.7146l5.1376,4.3764h0.1903l-0.5708-6.6598l2.6639-1.332l4.5667,8.9431l-2.0931,1.1417
				L102.48,64.666l0,0l0.5708,6.4695l-1.332,0.7611L96.7716,67.33l0,0l2.8542,5.5181l-2.2834,1.1417l-4.5667-8.9431L95.4397,63.7146
				z"/>
			<path class="st1" d="M110.4718,57.4354l3.9959,5.3278h0.1903l0.7611-6.6598l2.8542-0.7611l2.6639,9.7043l-2.2834,0.5708
				l-1.7125-5.8987l0,0l-0.7611,6.4695l-1.5222,0.3806l-3.9959-5.3278l0,0l1.7125,6.089l-2.2834,0.5708l-2.6639-9.7043
				L110.4718,57.4354z"/>
			<path class="st1" d="M131.5928,54.0104l0.3806,6.4695c0.1903,2.2834-1.5222,3.6153-3.9959,3.8056
				c-2.4736,0.1903-4.3764-0.9514-4.3764-3.2348l-0.3806-6.6598l2.4736-0.1903l0.3806,6.4695c0,0.9514,0.7611,1.332,1.9028,1.332
				c1.1417,0.1903,1.7125-0.3806,1.7125-1.332l-0.3806-6.4695L131.5928,54.0104z"/>
			<path class="st1" d="M143.961,64.8563l-2.0931-0.1903l-3.425-6.089l0,0l-0.5708,5.7084l-2.4736-0.3806l1.1417-9.8945
				l2.0931,0.1903l3.425,6.089l0,0l0.5708-5.7084l2.2834,0.3806L143.961,64.8563z"/>
			<path class="st1" d="M149.4791,66.1883l-2.2834-0.5708l2.2834-9.7043l2.2834,0.5708L149.4791,66.1883z"/>
			<path class="st1" d="M161.2764,63.3341c0.1903-0.9514-0.1903-1.9028-1.1417-2.2834c-1.332-0.5708-2.6639,0.1903-3.2348,1.9028
				c-0.7611,1.9028-0.1903,3.0445,1.1417,3.6153c0.9514,0.3806,1.9028,0.1903,2.2834-0.7611l2.2834,0.9514
				c-0.7611,1.5222-2.8542,2.8542-5.5181,1.9028c-2.4736-0.9514-3.8056-3.425-2.6639-6.4695s3.8056-3.9959,6.2792-3.0445
				c2.2834,0.9514,3.425,2.8542,2.8542,5.1376L161.2764,63.3341z"/>
			<path class="st1" d="M163.5598,71.1356l7.9918-6.6598l2.6639,1.7125l-2.2834,10.2751l-2.0931-1.5222l0.5708-2.0931
				l-3.0445-1.7125l-1.5222,1.332L163.5598,71.1356z M170.7904,70.9453l0.9514-3.6153l0,0l-2.8542,2.4736L170.7904,70.9453z"/>
			<path class="st1" d="M179.5433,69.423l6.4695,5.3278l-1.332,1.5222l-2.2834-1.9028l-5.1376,6.089l-1.9028-1.5222l5.1375-6.089
				l-2.2833-1.9028L179.5433,69.423z"/>
			<path class="st1" d="M183.1586,86.3579l-1.7125-1.7125l7.2306-6.8501l1.7125,1.7125L183.1586,86.3579z"/>
			<path class="st1" d="M188.1059,92.8274c-1.5222-2.2834-1.1417-4.9473,1.5222-6.8501c2.6639-1.9028,5.3278-1.1417,6.8501,0.9514
				c1.5222,2.2834,1.1417,4.9473-1.5222,6.8501C192.2921,95.6816,189.6281,94.9205,188.1059,92.8274z M194.7657,88.0705
				c-0.7611-1.1417-2.0931-1.332-3.8056-0.1903c-1.5222,1.1417-1.9028,2.4736-1.1417,3.6153
				c0.7611,1.1417,2.0931,1.332,3.8056,0.1903C195.1462,90.5441,195.5268,89.2121,194.7657,88.0705z"/>
			<path class="st1" d="M195.9074,106.9081l-0.9514-1.9028l3.6153-6.089l0,0l-5.1376,2.4736l-0.9514-2.0931l9.1334-4.1862
				l0.9514,1.9028l-3.6153,5.8987l0,0l5.1375-2.4736l0.9514,2.0931L195.9074,106.9081z"/>
		</g>
		<g>
			<path class="st1" d="M67.8491,169.3199c0.9514-0.7611,1.9028-0.5708,3.0445-0.1903c0.1903-0.7611,0.5708-1.5222,1.332-2.0931
				c1.1417-0.9514,2.8542-0.7611,3.8056,0.5708c0.9514,1.332,0.7611,2.8542-0.3806,3.6153
				c-0.7611,0.7611-1.5222,0.7611-2.6639,0.3806l-0.5708-0.1903l-0.3806,2.0931c0.5708,0,1.1417-0.3806,1.7125-0.7611l1.1417,1.5222
				c-1.1417,0.9514-2.2834,1.5222-3.2348,1.5222l-0.3806,2.2834l-1.5222-1.9028l0.1903-0.7611
				c-0.9514-0.1903-1.5222-0.9514-2.0931-1.5222C66.5171,171.9838,66.7074,170.2713,67.8491,169.3199z M70.7033,170.8421
				c-0.5708-0.1903-0.9514-0.1903-1.1417,0.1903c-0.7611,0.3806-0.7611,0.9514-0.1903,1.7125
				c0.1903,0.3806,0.5708,0.5708,0.9514,0.7611L70.7033,170.8421z M73.3672,170.081c0.5708,0.1903,0.9514,0.1903,1.1417,0
				c0.1903-0.1903,0.3806-0.5708,0-1.1417c-0.3806-0.3806-0.7611-0.3806-1.1417-0.1903c-0.3806,0.1903-0.3806,0.5708-0.5708,1.1417
				L73.3672,170.081z"/>
			<path class="st1" d="M89.1604,183.7812c-1.1417-0.9514-2.4736-0.5708-3.6153,0.9514c-1.1417,1.5222-1.1417,2.8542,0.1903,3.8056
				c1.1417,0.7611,2.0931,0.7611,2.6639-0.1903l-1.7125-1.1417l0.9514-1.332l3.425,2.4736l-0.7611,1.1417
				c-1.5222,2.0931-3.9959,2.2834-6.089,0.7611c-2.2834-1.7125-2.6639-4.3764-0.7611-7.0403
				c1.9028-2.6639,4.757-2.8542,6.8501-1.332c1.9028,1.332,2.4736,3.6153,1.5222,5.3278l-1.9028-1.5222
				C90.3021,185.1131,89.9215,184.352,89.1604,183.7812z"/>
			<path class="st1" d="M97.9133,187.0159l3.8056,1.7125c2.0931,0.9514,2.6639,2.6639,1.9028,4.5667
				c-0.5708,1.332-1.5222,1.9028-2.8542,1.9028l0.1903,4.3764l-2.2834-1.1417l-0.1903-3.8056l-1.1417-0.5709l-1.5222,3.0445
				l-2.2834-0.9514L97.9133,187.0159z M99.2453,192.7243c0.9514,0.3806,1.7125,0.3806,2.0931-0.5708
				c0.3806-0.7611,0-1.5222-0.9514-1.9028l-1.1417-0.3806l-1.1417,2.4736L99.2453,192.7243z"/>
			<path class="st1" d="M106.0953,201.4772l5.7084-8.7529l3.0445,0.7611l0.7611,10.4654l-2.4736-0.5708l-0.1903-2.2834
				l-3.425-0.7611l-1.1417,1.9028L106.0953,201.4772z M113.1357,199.1938l-0.1903-3.6153l0,0l-1.9028,3.2348L113.1357,199.1938z"/>
			<path class="st1" d="M122.4594,194.8174l4.1862,0.1903c2.2834,0.1903,3.6153,1.5222,3.425,3.6153
				c-0.1903,2.0931-1.7125,3.425-3.9959,3.2347l-1.7125-0.1903l-0.1903,3.0445l-2.4736-0.1903L122.4594,194.8174z
				 M125.6941,199.9549c1.1417,0,1.7125-0.5708,1.7125-1.3319c0-0.9514-0.5708-1.5222-1.5222-1.5222h-1.1417l-0.1903,3.0445
				L125.6941,199.9549z"/>
			<path class="st1" d="M134.6373,195.1979l2.4736-0.3806l0.5708,3.9959l3.8056-0.5708l-0.5708-3.9959l2.4736-0.3806l1.332,9.8945
				l-2.4736,0.5708l-0.5708-3.9959l-3.8056,0.5708l0.5708,3.9959l-2.4736,0.3806L134.6373,195.1979z"/>
			<path class="st1" d="M153.0944,201.6674l-2.2834,0.7611l-2.8542-9.514l2.2834-0.7611L153.0944,201.6674z"/>
			<path class="st1" d="M162.4181,191.2021c-0.5708-0.7611-1.5222-1.1417-2.4736-0.5708c-1.332,0.5708-1.7125,1.9028-0.7611,3.6153
				c0.7611,1.7125,2.0931,2.2834,3.425,1.7125c0.9514-0.3806,1.332-1.332,1.1417-2.2834l2.2834-0.9514
				c0.5708,1.7125,0,3.9959-2.4736,5.1376s-5.1375,0.3806-6.4695-2.6639c-1.332-3.0445-0.3806-5.5181,2.0931-6.6598
				c2.0931-0.9514,4.3764-0.5708,5.5181,1.5222L162.4181,191.2021z"/>
			<path class="st1" d="M178.9725,187.9673l-6.6598-7.4209l2.6639-2.4736c2.2834-2.0931,4.9473-1.9028,7.0403,0.3806
				c2.0931,2.2833,1.9028,4.9473-0.3806,7.0403L178.9725,187.9673z M180.3044,184.1617c1.332-1.1417,1.332-2.2834,0-3.9959
				c-1.5222-1.5222-2.6639-1.5222-3.9959-0.3806l-0.7611,0.7611l3.9959,4.3764L180.3044,184.1617z"/>
			<path class="st1" d="M181.6364,171.413l4.1862-5.5181l1.5222,1.1417l-2.6639,3.6153l1.7125,1.332l2.4736-3.425l1.5222,1.1417
				l-2.4736,3.425l1.7125,1.332l2.6639-3.6153l1.5222,1.1417l-4.1861,5.5181L181.6364,171.413z"/>
			<path class="st1" d="M191.9115,159.2351c-0.3806,0.7611-0.3806,1.5222,0.1903,1.7125c0.5708,0.3806,1.1417,0,1.7125-0.7611
				l0.5708-0.7611c1.332-1.5222,2.6639-2.0931,3.9959-1.332c1.7125,0.9514,2.0931,2.6639,0.9514,4.9473
				s-3.0445,3.2348-5.1376,2.0931l1.1417-2.0931c0.9514,0.3806,1.7125,0,2.0931-0.9514s0.3806-1.5222-0.1903-1.9028
				c-0.5708-0.1903-0.9514,0-1.7125,0.9514l-0.7611,0.7611c-1.1417,1.332-2.4736,1.9028-3.8056,1.1417
				c-1.7125-0.7611-2.0931-2.8542-0.9514-4.9473c1.1417-2.0931,2.8542-2.8542,4.5667-1.9028l-1.1417,2.0931
				C192.8629,158.2837,192.2921,158.474,191.9115,159.2351z"/>
			<path class="st1" d="M203.8991,151.6239l-0.7611,2.2834l-9.514-3.2348l0.7611-2.2834L203.8991,151.6239z"/>
			<path class="st1" d="M198.7616,139.446c-0.1903,1.332,0.5708,2.4736,2.4736,2.8542c1.9028,0.3806,3.0445-0.3806,3.425-1.7125
				c0.1903-1.332-0.3806-2.0931-1.332-2.2834l-0.3806,1.9028l-1.7125-0.3806l0.7611-4.1862l1.332,0.1903
				c2.6639,0.3806,3.8056,2.4736,3.425,5.1376c-0.5708,2.8542-2.6639,4.3764-5.8987,3.8056
				c-3.2347-0.5708-4.757-3.0445-4.1861-5.5181c0.3806-2.2834,2.0931-3.8056,3.9959-3.6153l-0.3806,2.0931
				C199.5227,137.9237,198.9518,138.4946,198.7616,139.446z"/>
			<path class="st1" d="M207.5144,121.3694v2.0931l-5.7084,4.1862l0,0l5.7084-0.1903v2.4736l-9.7043,0.1903v-2.0931l5.7084-3.9959
				l0,0l-5.7084,0.1903V121.75L207.5144,121.3694z"/>
		</g>
	</g>
</g>
<g>
</g>
<g>
</g>
<g>
</g>
<g>
</g>
<g>
</g>
<g>
</g>
<g>
</g>
<g>
</g>
<g>
</g>
<g>
</g>
<g>
</g>
<g>
</g>
<g>
</g>
<g>
</g>
<g>
</g>
</svg>
