<?xml version="1.0" encoding="utf-8"?>
<!-- Generator: Adobe Illustrator 22.1.0, SVG Export Plug-In . SVG Version: 6.00 Build 0)  -->
<svg version="1.1" id="Layer_1" xmlns="http://www.w3.org/2000/svg" xmlns:xlink="http://www.w3.org/1999/xlink" x="0px" y="0px"
	 width="80px" height="79.4px" viewBox="0 0 80 79.4" style="enable-background:new 0 0 80 79.4;" xml:space="preserve">
<style type="text/css">
	.st0{fill:#7D47DB;}
</style>
<title>divinodisenio</title>
<g>
	<g>
		<path id="_Compound_Path__9_" class="st0" d="M57.1,31.1l-3-3c-1-1-2.5-1-3.5,0c0,0,0,0,0,0l-9.8,9.8c-0.4,0.4-1.1,0.4-1.5,0
			l-9.8-9.8c-1-1-2.5-1-3.5,0c0,0,0,0,0,0l-3,3c-4.4,4.4-4.4,11.4,0,15.8c2.1,2.1,4.9,3.3,7.9,3.3l0,0c3,0,5.8-1.2,7.9-3.3l0.6-0.6
			c0.4-0.4,1.1-0.4,1.5,0l0.6,0.6c4.3,4.4,11.3,4.5,15.8,0.3s4.5-11.3,0.3-15.8C57.3,31.3,57.2,31.2,57.1,31.1L57.1,31.1z
			 M35.3,43.4c-2.5,2.3-6.5,2.1-8.8-0.4c-2.1-2.4-2.1-6,0-8.3L27,34c0.4-0.4,1.1-0.4,1.5,0l7.3,7.3c0.4,0.4,0.4,1.1,0,1.5L35.3,43.4
			z M53.6,43.4c-2.4,2.4-6.4,2.4-8.8,0c0,0,0,0,0,0l-0.6-0.6c-0.4-0.4-0.4-1.1,0-1.5l7.3-7.3c0.4-0.4,1.1-0.4,1.5,0l0.6,0.6
			C56,37,56,41,53.6,43.4C53.6,43.4,53.6,43.4,53.6,43.4L53.6,43.4z"/>
		<g>
			<path class="st0" d="M5.3,50.8L5.3,50.8l-4-0.1l-0.4-1.4l5.5,0.3l0.5,1.6l-4.6,3.1l-0.4-1.4L5.3,50.8z"/>
			<path class="st0" d="M5.6,45.1l0.2,1.3l-5.2,0.7l-0.2-1.3L5.6,45.1z"/>
			<path class="st0" d="M1,41.4c0,0.5,0.2,0.7,0.5,0.7c0.3,0,0.5-0.3,0.6-0.8l0.1-0.5c0.2-1,0.7-1.6,1.6-1.6c1,0,1.6,0.8,1.6,2.1
				c0,1.3-0.6,2.2-1.8,2.2l0-1.2c0.5,0,0.8-0.4,0.7-1c0-0.5-0.2-0.8-0.6-0.8c-0.3,0-0.4,0.3-0.6,0.8l-0.1,0.5
				c-0.2,0.9-0.6,1.5-1.4,1.5c-1,0-1.6-0.8-1.7-2c0-1.2,0.6-2,1.6-2l0,1.2C1.3,40.6,1,40.9,1,41.4z"/>
			<path class="st0" d="M0.8,32.5L4.3,33c1.2,0.2,1.7,1.2,1.5,2.5c-0.2,1.3-1,2.1-2.2,1.9l-3.4-0.5l0.2-1.3l3.4,0.5
				c0.5,0.1,0.8-0.3,0.9-0.8c0.1-0.6-0.2-1-0.6-1.1l-3.4-0.5L0.8,32.5z"/>
			<path class="st0" d="M6.3,31.9l-4.4-3.3L2.5,27L8,27l-0.4,1.3l-1.1,0l-0.6,1.7l0.9,0.7L6.3,31.9z M5.4,28.2l-1.9,0l0,0L5,29.4
				L5.4,28.2z"/>
			<path class="st0" d="M4,23.2l0.6-1.1l3.7,2l1-1.9l0.9,0.5l-1.6,3L4,23.2z"/>
			<path class="st0" d="M12.4,14.3c-0.4-0.3-0.9-0.2-1.3,0.2c-0.5,0.6-0.4,1.3,0.4,2c0.8,0.7,1.5,0.7,2,0.1c0.4-0.4,0.4-0.9,0.1-1.3
				l0.8-1c0.6,0.7,0.8,1.9-0.1,3c-0.9,1.1-2.4,1.2-3.7,0.1c-1.3-1.1-1.3-2.6-0.4-3.6c0.8-0.9,2-1.2,3-0.4L12.4,14.3z"/>
			<path class="st0" d="M18.8,13c-1.1,0.9-2.6,0.8-3.6-0.6c-1.1-1.4-0.8-2.8,0.3-3.7c1.1-0.9,2.6-0.8,3.6,0.6
				C20.2,10.7,19.9,12.1,18.8,13z M16.2,9.6c-0.6,0.5-0.6,1.2,0,2c0.6,0.8,1.3,1,1.9,0.5c0.6-0.5,0.6-1.2,0-2
				C17.5,9.3,16.8,9.1,16.2,9.6z"/>
			<path class="st0" d="M21,5.1l2.7,2.3l0.1,0l-0.3-3.5l1.4-0.7l2.4,4.7l-1.1,0.6l-1.5-2.9l0,0L25,9l-0.7,0.4L21.7,7l0,0l1.5,2.9
				L22,10.5l-2.4-4.7L21,5.1z"/>
			<path class="st0" d="M28.9,1.8L31,4.6l0.1,0l0.4-3.5L33,0.7l1.4,5.1l-1.2,0.3L32.3,3l0,0l-0.4,3.4l-0.8,0.2l-2.1-2.8l0,0L29.9,7
				l-1.2,0.3l-1.4-5.1L28.9,1.8z"/>
			<path class="st0" d="M40,0l0.2,3.4c0.1,1.2-0.8,1.9-2.1,2c-1.3,0.1-2.3-0.5-2.3-1.7l-0.2-3.5l1.3-0.1l0.2,3.4
				c0,0.5,0.4,0.7,1,0.7C38.7,4.3,39,4,39,3.5l-0.2-3.4L40,0z"/>
			<path class="st0" d="M46.5,5.7l-1.1-0.1l-1.8-3.2l0,0l-0.3,3L42,5.2L42.6,0l1.1,0.1l1.8,3.2l0,0l0.3-3L47,0.5L46.5,5.7z"/>
			<path class="st0" d="M49.4,6.4l-1.2-0.3L49.4,1l1.2,0.3L49.4,6.4z"/>
			<path class="st0" d="M55.6,4.9c0.1-0.5-0.1-1-0.6-1.2c-0.7-0.3-1.4,0.1-1.7,1c-0.4,1-0.1,1.6,0.6,1.9c0.5,0.2,1,0.1,1.2-0.4
				l1.2,0.5c-0.4,0.8-1.5,1.5-2.9,1c-1.3-0.5-2-1.8-1.4-3.4c0.6-1.6,2-2.1,3.3-1.6c1.2,0.5,1.8,1.5,1.5,2.7L55.6,4.9z"/>
			<path class="st0" d="M56.8,9L61,5.5l1.4,0.9l-1.2,5.4L60.1,11l0.3-1.1L58.8,9L58,9.7L56.8,9z M60.6,8.9L61.1,7l0,0l-1.5,1.3
				L60.6,8.9z"/>
			<path class="st0" d="M65.2,8.1l3.4,2.8l-0.7,0.8l-1.2-1L64,13.9l-1-0.8l2.7-3.2l-1.2-1L65.2,8.1z"/>
			<path class="st0" d="M67.1,17l-0.9-0.9l3.8-3.6l0.9,0.9L67.1,17z"/>
			<path class="st0" d="M69.7,20.4c-0.8-1.2-0.6-2.6,0.8-3.6c1.4-1,2.8-0.6,3.6,0.5c0.8,1.2,0.6,2.6-0.8,3.6
				C71.9,21.9,70.5,21.5,69.7,20.4z M73.2,17.9c-0.4-0.6-1.1-0.7-2-0.1c-0.8,0.6-1,1.3-0.6,1.9c0.4,0.6,1.1,0.7,2,0.1
				C73.4,19.2,73.6,18.5,73.2,17.9z"/>
			<path class="st0" d="M73.8,27.8l-0.5-1l1.9-3.2l0,0l-2.7,1.3L72,23.8l4.8-2.2l0.5,1l-1.9,3.1l0,0l2.7-1.3l0.5,1.1L73.8,27.8z"/>
		</g>
		<g>
			<path class="st0" d="M6.5,60.6c0.5-0.4,1-0.3,1.6-0.1c0.1-0.4,0.3-0.8,0.7-1.1c0.6-0.5,1.5-0.4,2,0.3c0.5,0.7,0.4,1.5-0.2,1.9
				C10.2,62,9.8,62,9.2,61.8l-0.3-0.1l-0.2,1.1c0.3,0,0.6-0.2,0.9-0.4l0.6,0.8C9.6,63.7,9,64,8.5,64l-0.2,1.2l-0.8-1l0.1-0.4
				c-0.5-0.1-0.8-0.5-1.1-0.8C5.8,62,5.9,61.1,6.5,60.6z M8,61.4c-0.3-0.1-0.5-0.1-0.6,0.1C7,61.7,7,62,7.3,62.4
				c0.1,0.2,0.3,0.3,0.5,0.4L8,61.4z M9.4,61c0.3,0.1,0.5,0.1,0.6,0c0.1-0.1,0.2-0.3,0-0.6c-0.2-0.2-0.4-0.2-0.6-0.1
				c-0.2,0.1-0.2,0.3-0.3,0.6L9.4,61z"/>
			<path class="st0" d="M17.7,68.2c-0.6-0.5-1.3-0.3-1.9,0.5c-0.6,0.8-0.6,1.5,0.1,2c0.6,0.4,1.1,0.4,1.4-0.1L16.4,70l0.5-0.7
				l1.8,1.3l-0.4,0.6c-0.8,1.1-2.1,1.2-3.2,0.4c-1.2-0.9-1.4-2.3-0.4-3.7c1-1.4,2.5-1.5,3.6-0.7c1,0.7,1.3,1.9,0.8,2.8l-1-0.8
				C18.3,68.9,18.1,68.5,17.7,68.2z"/>
			<path class="st0" d="M22.3,69.9l2,0.9c1.1,0.5,1.4,1.4,1,2.4c-0.3,0.7-0.8,1-1.5,1l0.1,2.3l-1.2-0.6l-0.1-2L22,73.6l-0.8,1.6
				L20,74.7L22.3,69.9z M23,72.9c0.5,0.2,0.9,0.2,1.1-0.3c0.2-0.4,0-0.8-0.5-1L23,71.4l-0.6,1.3L23,72.9z"/>
			<path class="st0" d="M26.6,77.5l3-4.6l1.6,0.4l0.4,5.5l-1.3-0.3l-0.1-1.2l-1.8-0.4l-0.6,1L26.6,77.5z M30.3,76.3l-0.1-1.9l0,0
				l-1,1.7L30.3,76.3z"/>
			<path class="st0" d="M35.2,74l2.2,0.1c1.2,0.1,1.9,0.8,1.8,1.9c-0.1,1.1-0.9,1.8-2.1,1.7l-0.9-0.1l-0.1,1.6l-1.3-0.1L35.2,74z
				 M36.9,76.7c0.6,0,0.9-0.3,0.9-0.7c0-0.5-0.3-0.8-0.8-0.8l-0.6,0l-0.1,1.6L36.9,76.7z"/>
			<path class="st0" d="M41.6,74.2l1.3-0.2l0.3,2.1l2-0.3l-0.3-2.1l1.3-0.2l0.7,5.2L45.6,79l-0.3-2.1l-2,0.3l0.3,2.1l-1.3,0.2
				L41.6,74.2z"/>
			<path class="st0" d="M51.3,77.6L50.1,78l-1.5-5l1.2-0.4L51.3,77.6z"/>
			<path class="st0" d="M56.2,72.1c-0.3-0.4-0.8-0.6-1.3-0.3c-0.7,0.3-0.9,1-0.4,1.9c0.4,0.9,1.1,1.2,1.8,0.9
				c0.5-0.2,0.7-0.7,0.6-1.2l1.2-0.5c0.3,0.9,0,2.1-1.3,2.7c-1.3,0.6-2.7,0.2-3.4-1.4c-0.7-1.6-0.2-2.9,1.1-3.5
				c1.1-0.5,2.3-0.3,2.9,0.8L56.2,72.1z"/>
			<path class="st0" d="M64.9,70.4l-3.5-3.9l1.4-1.3c1.2-1.1,2.6-1,3.7,0.2c1.1,1.2,1,2.6-0.2,3.7L64.9,70.4z M65.6,68.4
				c0.7-0.6,0.7-1.2,0-2.1c-0.8-0.8-1.4-0.8-2.1-0.2l-0.4,0.4l2.1,2.3L65.6,68.4z"/>
			<path class="st0" d="M66.3,61.7l2.2-2.9l0.8,0.6l-1.4,1.9l0.9,0.7l1.3-1.8l0.8,0.6l-1.3,1.8l0.9,0.7l1.4-1.9l0.8,0.6l-2.2,2.9
				L66.3,61.7z"/>
			<path class="st0" d="M71.7,55.3c-0.2,0.4-0.2,0.8,0.1,0.9c0.3,0.2,0.6,0,0.9-0.4l0.3-0.4c0.7-0.8,1.4-1.1,2.1-0.7
				c0.9,0.5,1.1,1.4,0.5,2.6C75,58.5,74,59,72.9,58.4l0.6-1.1c0.5,0.2,0.9,0,1.1-0.5c0.2-0.5,0.2-0.8-0.1-1c-0.3-0.1-0.5,0-0.9,0.5
				l-0.4,0.4c-0.6,0.7-1.3,1-2,0.6c-0.9-0.4-1.1-1.5-0.5-2.6c0.6-1.1,1.5-1.5,2.4-1l-0.6,1.1C72.2,54.8,71.9,54.9,71.7,55.3z"/>
			<path class="st0" d="M78,51.3l-0.4,1.2l-5-1.7l0.4-1.2L78,51.3z"/>
			<path class="st0" d="M75.3,44.9c-0.1,0.7,0.3,1.3,1.3,1.5c1,0.2,1.6-0.2,1.8-0.9c0.1-0.7-0.2-1.1-0.7-1.2l-0.2,1l-0.9-0.2
				l0.4-2.2l0.7,0.1c1.4,0.2,2,1.3,1.8,2.7c-0.3,1.5-1.4,2.3-3.1,2c-1.7-0.3-2.5-1.6-2.2-2.9c0.2-1.2,1.1-2,2.1-1.9L76.1,44
				C75.7,44.1,75.4,44.4,75.3,44.9z"/>
			<path class="st0" d="M79.9,35.4l0,1.1l-3,2.2l0,0l3-0.1l0,1.3L74.8,40l0-1.1l3-2.1l0,0l-3,0.1l0-1.3L79.9,35.4z"/>
		</g>
	</g>
</g>
</svg>
