<?xml version="1.0" encoding="utf-8"?>
<!-- Generator: Adobe Illustrator 24.0.1, SVG Export Plug-In . SVG Version: 6.00 Build 0)  -->
<svg version="1.1" id="Layer_1" xmlns="http://www.w3.org/2000/svg" xmlns:xlink="http://www.w3.org/1999/xlink" x="0px" y="0px"
	 width="42.1px" height="24.2px" viewBox="0 0 42.1 24.2" style="enable-background:new 0 0 42.1 24.2;" xml:space="preserve">
<title>divinodisenio-footer</title>
<g id="Layer_2_1_">
	<g id="Layer_1-2">
		<path id="_Compound_Path_" d="M38,4.5l-3-3c-1-1-2.5-1-3.5,0l0,0l0,0l-9.8,9.8c-0.4,0.4-1.1,0.4-1.5,0l-9.8-9.9c-1-1-2.5-1-3.5,0
			l0,0l0,0l-3,3C-0.4,8.8-0.4,15.9,4,20.2c2.1,2,4.9,3.2,7.8,3.2l0,0c2.9,0,5.7-1.1,7.8-3.2l0.6-0.6c0.4-0.4,1-0.4,1.4-0.1
			c0,0,0,0,0.1,0.1l0.6,0.6c4.3,4.4,11.4,4.5,15.8,0.3s4.5-11.4,0.2-15.8L38,4.5L38,4.5z M16.1,16.7c-2.6,2.2-6.5,1.9-8.8-0.7
			c-2-2.3-2-5.8,0-8.1l0.6-0.6c0.4-0.4,1.1-0.4,1.5,0l7.3,7.3c0.4,0.4,0.4,1,0.1,1.4c0,0,0,0-0.1,0.1L16.1,16.7z M34.5,16.7
			c-2.4,2.4-6.4,2.4-8.8,0l0,0l0,0l-0.6-0.6c-0.4-0.4-0.4-1-0.1-1.4c0,0,0,0,0.1-0.1l7.3-7.3c0.4-0.4,1.1-0.4,1.5,0l0.6,0.6
			C36.9,10.4,36.9,14.3,34.5,16.7L34.5,16.7L34.5,16.7z"/>
	</g>
</g>
</svg>
