<?xml version="1.0" encoding="utf-8"?>
<!-- Generator: Adobe Illustrator 24.0.1, SVG Export Plug-In . SVG Version: 6.00 Build 0)  -->
<svg version="1.1" id="Layer_1" xmlns="http://www.w3.org/2000/svg" xmlns:xlink="http://www.w3.org/1999/xlink" x="0px" y="0px"
	 width="263px" height="263px" viewBox="0 0 263 263" style="enable-background:new 0 0 263 263;" xml:space="preserve">
<style type="text/css">
	.st0{fill:#F3F2ED;}
</style>
<g>
	<rect class="st0" width="263" height="263"/>
</g>
<g>
	<path d="M127.8,125.3h0.6v0.4h-12.1v-0.4h0.6c0.5,0,0.9-0.2,1.2-0.6c0.3-0.4,0.5-0.7,0.4-1.2l-1.6-14.7l-7.6,13.1
		c-1,1.7-1.5,3.2-1.5,4.5h-0.4L96.9,109l-1.6,14.6c-0.1,0.4,0.1,0.8,0.4,1.2c0.3,0.4,0.7,0.5,1.2,0.5h0.6v0.4h-8.5v-0.4h0.6
		c0.8,0,1.4-0.2,2-0.7c0.6-0.5,0.9-1.1,1-1.9l3.4-26h0.4l12.6,20.7L121,96.8h0.4l3.4,26c0.1,0.8,0.5,1.4,1,1.9
		C126.4,125,127.1,125.3,127.8,125.3z"/>
	<path d="M129.3,121.9c0-1.9,0.4-3.6,1.3-5h0.4c0,0.2,0,0.4,0,0.6c0,1.9,0.7,3.5,2,4.9c1.3,1.4,3.2,2.1,5.5,2.1
		c1.8,0,3.2-0.4,4.2-1.3c1-0.9,1.5-2,1.5-3.3c0-0.8-0.2-1.5-0.8-2.1c-0.5-0.6-1.3-1.3-2.5-2.1l-7-4.7c-2.6-1.8-3.9-3.9-3.9-6.5
		c0-0.3,0-0.5,0.1-0.8c0.2-2.1,1-3.8,2.5-5.1c1.5-1.3,3.5-1.9,6-1.9c1.5,0,3.3,0.1,5.5,0.4h2.6l-0.5,6h-0.4c0-1.4-0.5-2.5-1.6-3.4
		s-2.4-1.3-4.2-1.3c-2.1,0-3.6,0.6-4.6,1.9c-0.5,0.6-0.7,1.2-0.7,1.9c0,0.6,0.1,1.1,0.4,1.6c0.4,0.7,1.2,1.5,2.5,2.3l7.7,5
		c2.4,1.6,3.6,3.7,3.6,6.2c0,2.9-1,5.1-2.9,6.6c-2,1.5-4.6,2.3-7.8,2.3c-1.8,0-3.5-0.2-5.1-0.7c-1.6-0.4-2.7-1-3.4-1.8
		C129.3,123.3,129.3,122.6,129.3,121.9z"/>
	<path d="M175,105.4c0,1.2-0.2,2.4-0.7,3.5c-0.9,2.1-2.6,3.6-5.1,4.4c-0.7,0.2-1.4,0.4-2,0.4c-1.9,0-3.6-0.5-5.1-1.5v-0.4
		c2,0.1,3.7-0.6,4.9-2c1.1-1.2,1.6-2.7,1.6-4.7c0-1.9-0.5-3.4-1.4-4.5c-0.9-1.1-2.2-1.6-3.8-1.6h-2.7v23.7c0,0.7,0.3,1.3,0.8,1.8
		c0.5,0.5,1.1,0.7,1.8,0.7h0.5v0.4h-12.3v-0.4h0.5c0.7,0,1.3-0.2,1.8-0.7c0.5-0.5,0.8-1.1,0.8-1.8v-22.6c0-0.7-0.3-1.2-0.8-1.7
		c-0.5-0.4-1.1-0.7-1.8-0.7h-0.5v-0.4h13.5c3.3,0,5.8,0.7,7.5,2.1C174.1,100.9,175,102.9,175,105.4z"/>
	<path d="M54,165.3h0.3v0.4h-9.1v-0.4h0.4c0.6,0,1-0.2,1.3-0.5c0.3-0.4,0.4-0.7,0.4-1s-0.1-0.6-0.2-1l-2.6-6.9H33.6l-2.7,6.9
		c-0.1,0.3-0.2,0.6-0.2,1s0.1,0.6,0.4,1c0.3,0.4,0.7,0.5,1.3,0.5h0.4v0.4h-8.1v-0.4H25c0.7,0,1.3-0.2,2-0.6c0.6-0.4,1.2-1.1,1.6-1.9
		l9.2-21.8c1-2.2,1.5-3.6,1.5-4.2h0.4l10.9,26c0.4,0.8,0.9,1.5,1.5,1.9S53.3,165.3,54,165.3z M34.1,154.6h10l-4.9-13L34.1,154.6z"/>
	<path d="M71.3,144.7c0.4,0.8,0.6,1.7,0.6,2.8c0,1.1-0.4,2.1-1.3,3.1c-0.9,0.9-1.9,1.5-3.1,1.8c2,0.2,3.6,0.9,4.9,2.1s1.9,2.5,1.9,4
		c0,1.4-0.3,2.6-0.8,3.5s-1.3,1.6-2.2,2.1c-1.8,0.9-3.7,1.4-6,1.4h-10v-0.4h0.5c0.7,0,1.2-0.2,1.7-0.6s0.7-0.9,0.7-1.6V144
		c0-0.9-0.4-1.5-1.2-1.9c-0.4-0.2-0.8-0.3-1.2-0.3h-0.5v-0.4h8.3C67.6,141.4,70.2,142.5,71.3,144.7z M71.4,158.9c0-4-3.1-6-9.4-6
		v-0.4c4.8,0,7.1-1.7,7.1-5c0-3.2-1.9-4.9-5.6-4.9h-2.8v21.9h4.5c1.8,0,3.3-0.5,4.5-1.4C70.9,162.1,71.4,160.7,71.4,158.9z"/>
	<path d="M84.3,142.4c2.1-1.1,4.4-1.6,6.9-1.6c2.5,0,4.8,0.5,6.9,1.6c2.1,1.1,3.7,2.6,5,4.5c1.2,1.9,1.8,4.1,1.8,6.6
		c0,2.5-0.6,4.7-1.8,6.6c-1.2,1.9-2.9,3.4-5,4.5c-2.1,1.1-4.2,1.6-6.4,1.6c-2.2,0-4.1-0.3-5.8-0.9c-1.7-0.6-3.1-1.5-4.4-2.6
		c-1.2-1.1-2.2-2.5-2.9-4c-0.7-1.6-1.1-3.5-1.1-5.6c0-2.1,0.6-4.2,1.8-6.1C80.6,145,82.3,143.5,84.3,142.4z M83.6,161.8
		c2,2.1,4.6,3.2,7.6,3.2c3,0,5.6-1.1,7.6-3.2c2.1-2.1,3.1-4.9,3.1-8.3c0-3.4-1-6.1-3.1-8.3c-2.1-2.1-4.6-3.2-7.6-3.2
		c-3,0-5.6,1.1-7.6,3.2c-2,2.1-3.1,4.9-3.1,8.3C80.5,156.9,81.6,159.7,83.6,161.8z"/>
	<path d="M111.7,162.8c-2.4-2.3-3.6-5.4-3.6-9.3s1.2-7,3.6-9.3c2.4-2.3,5.5-3.4,9.4-3.4c3.8,0,7.1,0.8,9.7,2.4l0.9,5.8h-0.4
		c-0.6-2.4-1.7-4.1-3.3-5.3c-1.6-1.1-3.9-1.7-6.9-1.7c-3,0-5.4,1-7.3,3.1c-1.9,2.1-2.8,4.9-2.8,8.4c0,3.5,0.9,6.3,2.8,8.4
		c1.9,2.1,4.5,3.1,7.8,3.1c3.3,0,6.2-1.2,8.6-3.5l0-5.4c0-0.5-0.1-0.9-0.5-1.2c-0.3-0.3-0.8-0.4-1.4-0.4h-0.6v-0.4h7.4v0.4h-0.6
		c-1.2,0-1.8,0.5-1.8,1.6v4.9c-1.1,1.4-2.7,2.6-4.7,3.7c-2,1-4.3,1.6-6.9,1.6C117.3,166.2,114.1,165.1,111.7,162.8z"/>
	<path d="M162,165.3h0.3v0.4H154v-0.4h0.3c0.5,0,0.9-0.2,1.2-0.5c0.3-0.4,0.4-0.7,0.4-1c0-0.3-0.1-0.6-0.2-0.9l-2.2-5.4h-10.2
		l-2.2,5.3c-0.1,0.4-0.2,0.7-0.2,1s0.1,0.6,0.4,1c0.3,0.4,0.7,0.5,1.2,0.5h0.3v0.4h-7.7v-0.4h0.3c0.6,0,1.1-0.2,1.7-0.6
		c0.6-0.4,1.1-1,1.4-1.8c5.9-12.6,9-19.2,9.2-19.8c0.5-1.1,0.7-1.9,0.7-2.3h0.4l10,22.1C159.7,164.5,160.7,165.3,162,165.3z
		 M143.8,156.2h9.2l-4.5-11.1L143.8,156.2z"/>
	<path d="M190.1,153.5c0,3.8-1.2,6.7-3.5,8.9c-2.3,2.2-5.5,3.3-9.5,3.3h-13.5v-0.4h0.5c0.6,0,1.2-0.2,1.6-0.6s0.7-0.9,0.7-1.5V144
		c0-0.6-0.3-1.2-0.7-1.6c-0.4-0.4-1-0.6-1.6-0.6h-0.5v-0.4h13.5c2.6,0,4.9,0.5,6.9,1.5c2,1,3.5,2.4,4.5,4.2S190.1,151,190.1,153.5z
		 M169,142.6v21.9h8.1c3.1,0,5.6-1,7.4-2.9c1.8-2,2.7-4.6,2.7-8c0-3.4-0.9-6-2.7-8c-1.8-2-4.3-2.9-7.4-2.9H169z"/>
	<path d="M200.1,142.4c2.1-1.1,4.4-1.6,6.9-1.6c2.5,0,4.8,0.5,6.9,1.6c2.1,1.1,3.7,2.6,5,4.5c1.2,1.9,1.8,4.1,1.8,6.6
		c0,2.5-0.6,4.7-1.8,6.6c-1.2,1.9-2.9,3.4-5,4.5c-2.1,1.1-4.2,1.6-6.4,1.6s-4.1-0.3-5.8-0.9c-1.7-0.6-3.1-1.5-4.4-2.6
		c-1.2-1.1-2.2-2.5-2.9-4c-0.7-1.6-1.1-3.5-1.1-5.6c0-2.1,0.6-4.2,1.8-6.1C196.4,145,198,143.5,200.1,142.4z M199.4,161.8
		c2,2.1,4.6,3.2,7.6,3.2s5.6-1.1,7.6-3.2c2.1-2.1,3.1-4.9,3.1-8.3c0-3.4-1-6.1-3.1-8.3c-2.1-2.1-4.6-3.2-7.6-3.2s-5.6,1.1-7.6,3.2
		c-2,2.1-3.1,4.9-3.1,8.3C196.3,156.9,197.3,159.7,199.4,161.8z"/>
	<path d="M224.2,164.3c-0.1-0.3-0.1-1-0.1-2s0.2-2,0.5-3h0.5c0,0.2,0,0.5,0,0.7c0,1.5,0.5,2.7,1.4,3.6c1,0.9,2.3,1.4,4,1.4
		c1.8,0,3.2-0.4,4.2-1.2c1-0.8,1.5-1.9,1.5-3.2c0-1.3-0.5-2.4-1.5-3.3l-8.1-6.2c-1.3-1.1-1.9-2.6-1.9-4.5c0-1.1,0.3-2,0.9-2.9
		c0.6-0.9,1.4-1.6,2.4-2.1c1-0.5,2.3-0.8,3.7-0.8c1.4,0,2.6,0.1,3.7,0.4h1.3l0.1,4.4h-0.4c0-1.1-0.4-2-1.2-2.6
		c-0.8-0.6-1.9-0.9-3.4-0.9s-2.7,0.4-3.6,1.1c-0.9,0.7-1.4,1.7-1.4,2.9c0,1.2,0.5,2.2,1.6,3.1l8.2,6.3c1.2,1,1.9,2.5,1.9,4.3
		c0,1.8-0.7,3.4-2.1,4.7s-3.1,1.9-5.1,1.9c-1.3,0-2.6-0.2-4-0.5C225.9,165.4,224.9,165,224.2,164.3z"/>
</g>
</svg>
