<?xml version="1.0" encoding="utf-8"?>
<!-- Generator: Adobe Illustrator 24.0.1, SVG Export Plug-In . SVG Version: 6.00 Build 0)  -->
<svg version="1.1" id="Layer_1" xmlns="http://www.w3.org/2000/svg" xmlns:xlink="http://www.w3.org/1999/xlink" x="0px" y="0px"
	 width="223px" height="130px" viewBox="0 0 223 130" style="enable-background:new 0 0 223 130;" xml:space="preserve">
<g>
	<path d="M56.3,7.4L37,52.3h-9.5L8.3,7.4h11.2l10.8,27.2l1.8,6h0.2l1.9-6L45.1,7.4H56.3z"/>
	<path d="M103.4,52.4H93.2v-2.9h-0.1c-3.8,2.5-8.2,3.7-12.8,3.6c-9.2,0-20.1-3.3-20.1-14.5c0-14.1,18.8-15.2,30.5-15.2
		c0.7,0,1.6,0,2.4,0.1v-1c-0.5-4.9-4.5-6.8-10.4-6.8c-4.7-0.2-9.3,1.2-13.1,3.8L63,12.9c6.7-4.8,12.8-6.1,19.7-6.1
		c9.9,0,20.7,3.8,20.7,16.8L103.4,52.4z M93.2,32.1h-2.1c-2,0-4.4,0-6.8,0.1c-2.4,0.1-4.8,0.4-7.1,0.9c-4.6,1-7,2.7-7,5.6
		c0,4.6,6,5.6,10,5.6s12.9-0.5,12.9-5.6L93.2,32.1L93.2,32.1z"/>
	<path d="M158.8,52.3h-10.1V25.4c0-5.9-1.6-9.8-10.8-9.8c-6.8,0-12,3.6-12,10.3v26.4h-10.1v-45h10.1v4.1h0.1
		c3.2-2.8,8.5-4.7,13.3-4.7c11.5,0,19.5,6.3,19.5,17.5V52.3z"/>
	<path d="M214.5,34.2h-35.3l0.3,1c1.4,5.8,5.7,9,12.8,9c4.4,0,8.1-1.5,12-5l6.7,6.7c-5.1,4.7-11.9,7.2-18.8,7
		c-16,0-23.4-10-23.4-22.8c0-13.4,8.4-23.4,23.1-23.4c15.5,0,22.8,10.3,22.8,23.5C214.7,31.2,214.7,32.8,214.5,34.2z M204.4,25.6
		l-0.3-1c-1.6-6-5.6-9-12.3-9c-6.7,0-10.6,3.3-12.3,9l-0.2,1H204.4z"/>
	<path d="M48.5,61.4v41.8c0,11.8-5.4,18.2-17.7,18.2c-5.1,0-10.1-1.5-14.3-4.3l1.1-1.1c3.8,2.8,8.5,4.3,13.2,4.3
		c11.3,0,16.3-6.1,16.3-17.1V90.4h-0.2c-2.1,6.1-7.6,11-15.9,11c-12.4,0-18.7-8.6-18.7-20.3S18.4,60.7,31,60.7
		c7.3-0.1,13.8,4.5,16,11.4h0.2V61.4H48.5z M31,61.9c-11.7,0-17.4,8.5-17.4,19.2c0,11,5.8,19,17.4,19c11.1,0,16.3-9.2,16.3-19
		S42.2,61.9,31,61.9L31,61.9z"/>
	<path d="M93,106.1h-1.4v-6.7h-0.1c-2.9,5-10.4,7.4-17,7.4c-8.7,0-15.7-3.6-15.7-12.6c0-13.4,15.3-13.5,25.8-13.5
		c2.4,0,4.9,0.2,7.2,0.6l-0.2-0.2v-4.5c0-11.3-6.7-14.6-14.8-14.6c-4.9,0.1-9.8,1.5-13.9,4.2l-1.1-1.1c4.5-2.9,9.7-4.4,15-4.3
		c8.9,0,16.1,3.8,16.1,15.5L93,106.1z M91.9,82.5c-2.2-0.3-4.4-0.5-6.6-0.6c-2,0-4.4,0-7,0.2c-2.6,0.1-5.2,0.4-7.8,1
		c-5.4,1.3-10.3,4-10.3,11.2c0,9.6,9.8,11.4,14.3,11.4c5.5,0,17.1-2.7,17.1-11.4V82.7L91.9,82.5z"/>
	<path d="M122.6,62.8h-0.2c-7.9-0.1-15.6,6.4-15.6,21.3v22h-1.4V61.5h1.4v12.8h0.1c1.8-7.9,8.2-12.9,15.5-12.9h0.2V62.8z"/>
	<path d="M159.5,102.3c-3.3,3-7.7,4.5-12.9,4.5c-12.6,0-18.7-9.2-18.7-22.7c0-13.8,7-23.5,18.8-23.5c4.4-0.2,8.7,1.2,12.1,3.9
		l-0.9,1.1c-3.2-2.5-7.2-3.8-11.2-3.7c-12,0.1-17.4,10.9-17.4,22.2c0,10.9,4.7,21.4,17.3,21.4c4.4,0.2,8.7-1.4,12-4.3L159.5,102.3z"
		/>
	<path d="M169.3,106.1h-1.4V61.5h1.4V106.1z"/>
	<path d="M213.8,106.1h-1.3v-6.7h-0.1c-2.9,5-10.4,7.4-17,7.4c-8.7,0-15.7-3.6-15.7-12.6c0-13.5,15.3-13.6,25.8-13.6
		c2.4,0,4.8,0.2,7.2,0.6l-0.2-0.2v-4.5c0-11.3-6.7-14.6-14.8-14.6c-4.9,0.1-9.8,1.5-13.9,4.2l-1.1-1.1c4.5-2.9,9.7-4.4,15-4.3
		c8.9,0,16.1,3.8,16.1,15.5V106.1z M212.7,82.5c-2.2-0.3-4.4-0.5-6.6-0.6c-2,0-4.4,0-7,0.2c-2.6,0.1-5.2,0.4-7.8,1
		c-5.4,1.3-10.3,4-10.3,11.2c0,9.6,9.8,11.4,14.3,11.4c5.5,0,17.1-2.7,17.1-11.4V82.7L212.7,82.5z"/>
	<rect x="61.9" y="115.4" width="152.1" height="8"/>
</g>
</svg>
