<?xml version="1.0" encoding="utf-8"?>
<!-- Generator: Adobe Illustrator 24.0.1, SVG Export Plug-In . SVG Version: 6.00 Build 0)  -->
<svg version="1.1" id="Layer_1" xmlns="http://www.w3.org/2000/svg" xmlns:xlink="http://www.w3.org/1999/xlink" x="0px" y="0px"
	 width="263px" height="263px" viewBox="0 0 263 263" style="enable-background:new 0 0 263 263;" xml:space="preserve">
<style type="text/css">
	.st0{fill:#F3F2ED;}
	.st1{fill:none;}
</style>
<g>
	<rect x="0" y="0" class="st0" width="263" height="263"/>
</g>
<g>
	<g>
		<rect x="23.4428" y="51.4234" class="st1" width="217.501" height="154.6762"/>
		<g>
			<g>
				<g>
					<path d="M83.6548,127.4265v27.7696c0,7.8272-3.583,12.0699-11.7397,12.0699c-3.4887,0-6.7897-0.99-9.5237-2.8757l0.754-0.754
						c2.3102,1.7915,5.658,2.8283,8.7697,2.8283c7.4962,0,10.8439-4.0543,10.8439-11.3627v-8.392h-0.0943
						c-1.4145,4.055-5.045,7.3077-10.5612,7.3077c-8.2977,0-12.4944-5.7047-12.4944-13.4844s4.055-13.5787,12.4477-13.5787
						c5.4687,0,9.3345,3.5362,10.608,7.5905h0.0943v-7.1185H83.6548z M72.0569,127.8035c-7.7797,0-11.5519,5.6105-11.5519,12.7297
						c0,7.3077,3.819,12.6362,11.5519,12.6362c7.3545,0,10.7965-6.0824,10.7965-12.6362
						C82.8533,134.0737,79.4589,127.8035,72.0569,127.8035z"/>
					<path d="M116.0485,157.1293h-0.8965v-4.432h-0.0943c-1.9332,3.3002-6.9307,4.9507-11.3152,4.9507
						c-5.799,0-10.4202-2.4045-10.4202-8.3927c0-8.9575,10.1842-9.005,17.1617-9.005c1.5562,0,3.5837,0.141,4.8097,0.377
						l-0.1417-0.141v-3.0175c0-7.4969-4.432-9.6654-9.8065-9.6654c-2.8765,0-6.412,0.895-9.241,2.7815l-0.708-0.7072
						c3.2535-2.0742,6.6012-2.8757,9.9489-2.8757c5.94,0,10.7029,2.498,10.7029,10.2784V157.1293z M115.2938,141.4289
						c-0.9907-0.1885-3.3952-0.377-4.3852-0.377c-1.3195,0-2.9225,0-4.6205,0.0942c-1.744,0.0943-3.5355,0.2353-5.186,0.6598
						c-3.583,0.849-6.8365,2.688-6.8365,7.4495c0,6.412,6.5062,7.5444,9.5237,7.5444c3.6772,0,11.3627-1.7922,11.3627-7.5912V141.57
						L115.2938,141.4289z"/>
					<path d="M138.5394,128.369h-0.141c-5.2335-0.0475-10.3727,4.2435-10.3727,14.1449v14.6154h-0.8958v-29.6561h0.8958v8.4862
						h0.0943c1.226-5.2335,5.422-8.5805,10.2784-8.5805h0.141V128.369z"/>
					<path d="M165.8391,154.5838c-2.216,2.0268-5.0917,3.0175-8.5337,3.0175c-8.3927,0-12.4002-6.0824-12.4002-15.0406
						c0-9.1942,4.6205-15.6061,12.4469-15.6061c3.6305,0,5.7997,0.8957,8.0625,2.593l-0.613,0.7072
						c-1.7915-1.5562-4.573-2.4987-7.4495-2.4513c-7.9675,0.0468-11.5512,7.2609-11.5512,14.7572
						c0,7.2135,3.1117,14.1917,11.4569,14.1917c3.065,0,5.7997-0.849,7.9682-2.829L165.8391,154.5838z"/>
					<path d="M175.224,157.1293h-0.8958v-29.6561h0.8958V157.1293z"/>
					<path d="M207.6148,157.1293h-0.8958v-4.432h-0.0943c-1.9332,3.3002-6.9307,4.9507-11.3152,4.9507
						c-5.7997,0-10.4202-2.4045-10.4202-8.3927c0-8.9575,10.1842-9.005,17.1624-9.005c1.5555,0,3.583,0.141,4.809,0.377
						l-0.1417-0.141v-3.0175c0-7.4969-4.432-9.6654-9.8065-9.6654c-2.8765,0-6.4127,0.895-9.241,2.7815l-0.7072-0.7072
						c3.2527-2.0742,6.6005-2.8757,9.9482-2.8757c5.9407,0,10.7022,2.498,10.7022,10.2784V157.1293z M206.8608,141.4289
						c-0.99-0.1885-3.3945-0.377-4.3852-0.377c-1.3195,0-2.9232,0-4.6205,0.0942c-1.744,0.0943-3.5362,0.2353-5.186,0.6598
						c-3.583,0.849-6.8365,2.688-6.8365,7.4495c0,6.412,6.5062,7.5444,9.5237,7.5444c3.678,0,11.3627-1.7922,11.3627-7.5912V141.57
						L206.8608,141.4289z"/>
				</g>
			</g>
			<path d="M92.272,84.3716l-14.1758,32.9542H71.087L57.0162,84.3716h8.2121l7.9509,19.9295l1.3598,4.3938h0.105l1.4123-4.3938
				l7.9509-19.9295H92.272z"/>
			<path d="M126.7953,117.3776h-7.4279v-2.0922h-0.1043c-2.7203,1.8836-6.0681,2.6153-9.3633,2.6153
				c-6.748,0-14.7514-2.4585-14.7514-10.618c0-10.3569,13.8096-11.1943,22.3879-11.1943c0.5231,0,1.1663,0.0187,1.7944,0.0712
				l-0.0158-0.7511c-0.418-3.5571-3.3477-4.9694-7.689-4.9694c-3.1384,0-6.5911,0.5756-9.6244,2.8247l-4.8126-4.8644
				c4.9169-3.5571,9.4151-4.4989,14.437-4.4989c7.271,0,15.1694,2.7729,15.1694,12.3448V117.3776z M119.3653,102.4909
				c-0.541-0.0115-1.0965-0.0209-1.5145-0.0209c-1.4649,0-3.1909,0-4.9694,0.0525c-1.726,0.1043-3.6096,0.2612-5.2313,0.6274
				c-3.3477,0.7324-5.1255,1.9879-5.1255,4.1327c0,3.3477,4.3938,4.0801,7.3754,4.0801c2.8765,0,9.4676-0.3662,9.4676-4.1327
				v-3.9751L119.3653,102.4909z"/>
			<path d="M167.4911,117.3258h-7.4279V97.5531c0-4.3413-1.203-7.166-7.8984-7.166c-5.0212,0-8.7877,2.6678-8.7877,7.5847v19.3539
				h-7.4279V84.3191h7.4279v3.034h0.105c2.3009-2.1448,6.1717-3.5046,9.677-3.5046c8.4215,0,14.332,4.655,14.332,12.8678V117.3258z"
				/>
			<path d="M208.3969,104.0392H182.472l0.1892,0.7324c1.0461,4.237,4.1845,6.6429,9.4158,6.6429
				c3.2427,0,5.9105-1.0979,8.8402-3.6614l4.9169,4.9169c-4.237,3.7139-8.6834,5.1788-13.8096,5.1788
				c-11.7692,0-17.2092-7.3235-17.2092-16.7386c0-9.9388,6.1724-17.2617,16.9998-17.2617c11.3512,0,16.7386,7.5322,16.7386,17.2617
				C208.5537,101.8427,208.5012,102.9931,208.3969,104.0392z M200.9597,97.71l-0.2-0.7324
				c-1.1505-4.3938-4.0794-6.6429-8.9971-6.6429c-5.0212,0-7.7934,2.4059-9.0488,6.6429l-0.1842,0.7245L200.9597,97.71z"/>
			<rect x="95.9466" y="167.2833" width="111.985" height="5.8939"/>
		</g>
	</g>
</g>
<g>
</g>
<g>
</g>
<g>
</g>
<g>
</g>
<g>
</g>
<g>
</g>
<g>
</g>
<g>
</g>
<g>
</g>
<g>
</g>
<g>
</g>
<g>
</g>
<g>
</g>
<g>
</g>
<g>
</g>
</svg>
