<?xml version="1.0" encoding="utf-8"?>
<!-- Generator: Adobe Illustrator 24.0.1, SVG Export Plug-In . SVG Version: 6.00 Build 0)  -->
<svg version="1.1" id="Layer_1" xmlns="http://www.w3.org/2000/svg" xmlns:xlink="http://www.w3.org/1999/xlink" x="0px" y="0px"
	 width="263px" height="263px" viewBox="0 0 263 263" style="enable-background:new 0 0 263 263;" xml:space="preserve">
<style type="text/css">
	.st0{fill:#F3F2ED;}
</style>
<g>
	<rect class="st0" width="263" height="263"/>
</g>
<g>
	<g>
		<g>
			<path d="M90.1,86.5l-14.4,33.6h-7.1L54.2,86.5h8.3l8.1,20.4l1.4,4.5h0.1l1.4-4.5l8.1-20.4C81.6,86.5,90.1,86.5,90.1,86.5z"/>
			<path d="M125.3,120.2h-7.6v-2.1h-0.1c-2.8,2-6.2,2.6-9.5,2.6c-6.9,0-15-2.5-15-10.8c0-10.6,14-11.4,22.8-11.4
				c0.5,0,1.2,0,1.8,0.1v-0.8c-0.5-3.6-3.4-5-7.8-5c-3.2,0-6.7,0.6-9.8,2.9l-4.9-5c5-3.6,9.6-4.6,14.7-4.6c7.4,0,15.5,2.9,15.5,12.6
				L125.3,120.2L125.3,120.2z M117.8,105c-0.5,0-1.1,0-1.6,0c-1.5,0-3.2,0-5,0.1c-1.7,0.1-3.7,0.3-5.3,0.7c-3.4,0.8-5.3,2-5.3,4.2
				c0,3.4,4.5,4.1,7.5,4.1c2.9,0,9.7-0.4,9.7-4.2v-4.1V105z"/>
			<path d="M166.8,120.1h-7.6V100c0-4.4-1.2-7.3-8-7.3c-5.1,0-8.9,2.7-8.9,7.7v19.8h-7.6V86.5h7.6v3.1h0.1c2.3-2.2,6.3-3.6,9.8-3.6
				c8.6,0,14.6,4.7,14.6,13.1L166.8,120.1L166.8,120.1z"/>
			<path d="M208.5,106.6H182l0.2,0.8c1.1,4.4,4.3,6.8,9.6,6.8c3.3,0,6-1.1,9-3.8l5,5c-4.4,3.8-8.9,5.3-14,5.3
				c-12,0-17.6-7.4-17.6-17c0-10.1,6.3-17.6,17.4-17.6c11.6,0,17,7.7,17,17.6C208.7,104.3,208.6,105.5,208.5,106.6z M200.9,100.1
				l-0.2-0.8c-1.2-4.5-4.1-6.8-9.2-6.8c-5.1,0-8,2.5-9.2,6.8l-0.2,0.8H200.9z"/>
		</g>
		<rect x="94.6" y="171" width="114.2" height="6"/>
		<g>
			<g>
				<path d="M79.8,130.4v28.1c0,8.1-3.9,12.5-12.5,12.5c-4,0-7.5-1.1-10.6-3.3l1.5-1.6c2.4,1.8,5.9,2.9,9,2.9
					c7.1,0,10.5-3.9,10.5-10.7v-7h-0.1c-2,3.7-5.5,6.2-10.5,6.2c-8.6,0-13-5.6-13-13.8c0-7.9,4.4-14,12.9-14c5.1,0,8.9,2.8,10.6,6.5
					h0.2v-5.9H79.8z M67.2,131.9c-7.4,0-11,5.3-11,12c0,6.9,3.7,11.8,11,11.8c7.4,0,10.8-5.4,10.8-11.8
					C78,137.4,74.4,131.9,67.2,131.9z"/>
				<path d="M113.4,160.7h-2.1v-3.9h-0.1c-2,2.9-6.4,4.4-11,4.4c-6,0-11.2-2.5-11.2-8.8c0-9.2,10.7-9.4,18.1-9.4
					c1.4,0,3.3,0.2,4.4,0.3l-0.2-0.2v-2.3c0-6.8-4.4-8.8-9.5-8.8c-3,0-6.7,0.8-9.5,2.9l-1.4-1.4c3.4-2.5,7-3.4,10.9-3.4
					c6.2,0,11.6,2.6,11.6,10.6V160.7z M111.5,145.1c-1-0.2-3-0.2-4-0.2c-1.4,0-3,0-4.7,0.1c-1.8,0.1-3.5,0.2-5.3,0.6
					c-3.4,0.9-6.5,2.6-6.5,6.9c0,5.7,6,6.8,9.2,6.8c3.5,0,11-1.5,11-6.9v-7.1L111.5,145.1z"/>
				<path d="M136.8,132.6h-0.5c-5-0.1-10.2,3.8-10.2,13.2v14.9H124v-30.3h2.1v7.6h0.1c1.4-5,5.6-7.8,10.4-7.8h0.2V132.6z"/>
				<path d="M165.3,157.7c-2.5,2.3-5.6,3.5-9.5,3.5c-8.9,0-13.2-6.3-13.2-15.4c0-9.2,4.9-15.8,13.3-15.8c4.1,0,6.8,1.1,9.1,3.1
					l-1.4,1.5c-1.8-1.7-4.6-2.6-7.6-2.6c-7.7,0.1-11.3,6.7-11.3,13.8c0,6.9,3.1,13.4,11.1,13.4c3.2,0,5.9-1,8.1-3.1L165.3,157.7z"/>
				<path d="M175.4,160.7h-2.1v-30.3h2.1V160.7z"/>
				<path d="M208.9,160.7h-2.1v-3.9h-0.1c-2,2.9-6.4,4.4-11,4.4c-6,0-11.2-2.5-11.2-8.8c0-9.2,10.7-9.4,18.1-9.4
					c1.4,0,3.3,0.2,4.4,0.3l-0.2-0.2v-2.3c0-6.8-4.4-8.8-9.5-8.8c-3,0-6.7,0.8-9.5,2.9l-1.4-1.4c3.4-2.5,7-3.4,10.9-3.4
					c6.2,0,11.6,2.6,11.6,10.6L208.9,160.7L208.9,160.7z M207.1,145.1c-1-0.2-3-0.2-4-0.2c-1.4,0-3,0-4.7,0.1
					c-1.8,0.1-3.5,0.2-5.3,0.6c-3.4,0.9-6.5,2.6-6.5,6.9c0,5.7,6,6.8,9.2,6.8c3.5,0,11-1.5,11-6.9v-7.1L207.1,145.1z"/>
			</g>
		</g>
	</g>
</g>
</svg>
