<?xml version="1.0" encoding="utf-8"?>
<!-- Generator: Adobe Illustrator 24.0.1, SVG Export Plug-In . SVG Version: 6.00 Build 0)  -->
<svg version="1.1" id="Layer_1" xmlns="http://www.w3.org/2000/svg" xmlns:xlink="http://www.w3.org/1999/xlink" x="0px" y="0px"
	 width="158px" height="93.2px" viewBox="0 0 158 93.2" style="enable-background:new 0 0 158 93.2;" xml:space="preserve">
<g>
	<g>
		<g>
			<path d="M38.2,2.3L24,35.4h-7L2.8,2.3H11l8,20.1l1.3,4.4h0.1l1.4-4.4l8-20.1C29.9,2.3,38.2,2.3,38.2,2.3z"/>
			<path d="M72.9,35.4h-7.5v-2.1h-0.1C62.6,35.3,59.3,36,56,36c-6.8,0-14.8-2.4-14.8-10.7C41.2,14.9,55,14,63.7,14
				c0.5,0,1.2,0,1.8,0.1v-0.7c-0.4-3.6-3.3-5-7.7-5c-3.2,0-6.6,0.6-9.7,2.8l-4.8-4.9c5-3.6,9.5-4.5,14.5-4.5
				C65.1,1.8,73,4.6,73,14.3L72.9,35.4L72.9,35.4z M65.5,20.5c-0.5,0-1.1,0-1.6,0c-1.5,0-3.2,0-5,0.1c-1.7,0.1-3.6,0.3-5.3,0.7
				c-3.3,0.7-5.2,2-5.2,4.1c0,3.3,4.4,4.1,7.4,4.1c2.9,0,9.6-0.4,9.6-4.1v-4V20.5z"/>
			<path d="M113.8,35.4h-7.5V15.5c0-4.4-1.2-7.2-7.9-7.2c-5,0-8.8,2.7-8.8,7.6v19.5h-7.5V2.2h7.5v3h0.1c2.3-2.1,6.2-3.6,9.7-3.6
				c8.4,0,14.4,4.7,14.4,13L113.8,35.4L113.8,35.4z"/>
			<path d="M154.9,22h-26.1l0.2,0.7c1,4.3,4.2,6.7,9.5,6.7c3.3,0,5.9-1.1,8.9-3.7l5,5c-4.3,3.7-8.7,5.2-13.8,5.2
				c-11.8,0-17.3-7.3-17.3-16.8c0-10,6.2-17.3,17.1-17.3c11.4,0,16.8,7.6,16.8,17.3C155.1,19.8,155,20.9,154.9,22z M147.4,15.7
				l-0.2-0.7c-1.2-4.4-4.1-6.7-9-6.7c-5,0-7.8,2.4-9.1,6.7l-0.1,0.7H147.4z"/>
		</g>
		<rect x="42.7" y="85.6" width="112.5" height="5.9"/>
		<g>
			<g>
				<path d="M28.1,45.5v27.7c0,8-3.8,12.4-12.4,12.4c-3.9,0-7.4-1.1-10.4-3.3l1.5-1.6c2.4,1.8,5.8,2.9,8.9,2.9
					c7,0,10.4-3.8,10.4-10.5v-6.9h-0.1c-1.9,3.6-5.4,6.1-10.4,6.1C7,72.4,2.8,66.8,2.8,58.8C2.8,51,7,45,15.5,45
					c5,0,8.8,2.7,10.4,6.4h0.1v-5.8H28.1z M15.6,47C8.3,47,4.8,52.2,4.8,58.8c0,6.8,3.6,11.6,10.8,11.6c7.3,0,10.7-5.3,10.7-11.6
					C26.3,52.4,22.7,47,15.6,47z"/>
				<path d="M61.2,75.3h-2.1v-3.8H59c-2,2.8-6.3,4.4-10.8,4.4c-5.9,0-11-2.4-11-8.7c0-9,10.6-9.3,17.8-9.3c1.3,0,3.3,0.1,4.3,0.3
					L59.1,58v-2.3c0-6.7-4.3-8.7-9.3-8.7c-3,0-6.6,0.7-9.3,2.8L39,48.5c3.3-2.4,6.9-3.3,10.7-3.3c6.1,0,11.4,2.5,11.4,10.4V75.3z
					 M59.3,59.9c-1-0.1-3-0.2-3.9-0.2c-1.3,0-3,0-4.6,0.1c-1.8,0.1-3.5,0.2-5.2,0.6c-3.3,0.9-6.4,2.6-6.4,6.8c0,5.6,5.9,6.7,9,6.7
					c3.5,0,10.9-1.5,10.9-6.8v-7L59.3,59.9z"/>
				<path d="M84.2,47.6h-0.4c-5-0.1-10.1,3.8-10.1,13v14.7h-2.1V45.5h2.1V53h0.1c1.4-5,5.6-7.7,10.2-7.7h0.2V47.6z"/>
				<path d="M112.3,72.4c-2.4,2.3-5.6,3.5-9.4,3.5c-8.8,0-13-6.2-13-15.2c0-9,4.8-15.6,13.1-15.6c4,0,6.7,1.1,9,3l-1.4,1.5
					c-1.8-1.6-4.5-2.6-7.5-2.6C95.4,47.1,92,53.6,92,60.6c0,6.8,3,13.3,11,13.3c3.2,0,5.8-1,8-3L112.3,72.4z"/>
				<path d="M122.2,75.3h-2.1V45.5h2.1V75.3z"/>
				<path d="M155.3,75.3h-2.1v-3.8h-0.1c-2,2.8-6.3,4.4-10.8,4.4c-5.9,0-11-2.4-11-8.7c0-9,10.6-9.3,17.8-9.3c1.3,0,3.3,0.1,4.3,0.3
					l-0.2-0.2v-2.3c0-6.7-4.3-8.7-9.3-8.7c-3,0-6.6,0.7-9.3,2.8l-1.4-1.4c3.3-2.4,6.9-3.3,10.7-3.3c6.1,0,11.4,2.5,11.4,10.4
					L155.3,75.3L155.3,75.3z M153.5,59.9c-1-0.1-3-0.2-3.9-0.2c-1.3,0-3,0-4.6,0.1c-1.8,0.1-3.5,0.2-5.2,0.6
					c-3.3,0.9-6.4,2.6-6.4,6.8c0,5.6,5.9,6.7,9,6.7c3.5,0,10.9-1.5,10.9-6.8v-7L153.5,59.9z"/>
			</g>
		</g>
	</g>
</g>
</svg>
